<svg width="560" height="560" viewBox="0 0 560 560" fill="none" xmlns="http://www.w3.org/2000/svg">
<g clip-path="url(#clip0_8_4919)">
<rect width="560" height="560" fill="url(#paint0_linear_8_4919)"/>
<path opacity="0.3" d="M601.001 452.186L400.123 342.452L318 387.211L419.715 442.716H401.136L390.327 448.604V456.939L401.136 462.826H431.538L442.31 456.939V455.059L519.029 496.874L601.001 452.186Z" fill="black"/>
<path d="M405.452 345.325L400.536 348.021L397.533 309.256L399.86 305.461L405.452 305.957V345.325Z" fill="#A39C95"/>
<path d="M400.536 308.617L398.284 309.255L395.206 305.709L400.123 303.049L405.453 305.957L400.536 308.617Z" fill="#E6E1DD"/>
<path d="M400.536 348.021L395.206 345.112V305.709L400.536 308.617V348.021Z" fill="#D8D1C7"/>
<path d="M328.246 387.46L323.33 390.12L320.327 343.552L322.692 339.757L328.246 340.253V387.46Z" fill="#A39C95"/>
<path d="M323.33 342.914L321.078 343.552L318 340.005L322.917 337.345L328.247 340.254L323.33 342.914Z" fill="#E6E1DD"/>
<path d="M323.33 390.12L318 387.211V340.005L323.33 342.913V390.12Z" fill="#D8D1C7"/>
<path d="M523.945 494.214L519.028 496.874L516.026 450.306L518.353 446.511L523.945 447.008V494.214Z" fill="#A39C95"/>
<path d="M519.028 449.668L516.776 450.307L513.699 446.76L518.616 444.1L523.945 447.008L519.028 449.668Z" fill="#E6E1DD"/>
<path d="M519.028 496.874L513.699 493.966V446.76L519.028 449.668V496.874Z" fill="#D8D1C7"/>
<path d="M519.029 449.668L601.001 404.944V385.261L318 320.321L519.029 449.668Z" fill="#A39C95"/>
<path d="M318 320.321L519.029 429.984L601.001 385.261L399.973 275.633L318 320.321Z" fill="#E6E1DD"/>
<path d="M318 339.934L519.029 449.668V429.984L318 320.321V339.934Z" fill="#D8D1C7"/>
<path d="M508.406 438.425L506.942 439.205L489.339 420.443L508.406 429.204V438.425Z" fill="#A39C95"/>
<path d="M506.942 430.055L489.339 420.443L490.841 419.628L508.406 429.204L506.942 430.055Z" fill="#E6E1DD"/>
<path d="M506.942 439.205L489.339 429.629V420.443L506.942 430.055V439.205Z" fill="#D8D1C7"/>
<path d="M491.291 423.245V428.778L505.066 436.297V435.765L491.779 428.53V423.494L491.291 423.245Z" fill="#574943"/>
<path d="M491.779 423.494V428.53L505.066 435.765V430.764L491.779 423.494Z" fill="#362C29"/>
<path d="M502.101 430.481L502.326 430.339L503.227 430.835L503.001 431.332L502.101 430.481Z" fill="white"/>
<path d="M503.001 430.977L503.227 430.835L503.902 431.899L503.677 433.034L503.001 430.977Z" fill="#F4EFE9"/>
<path d="M503.677 432.041L503.902 431.899V432.928L503.677 433.034V432.041Z" fill="#E0DEDC"/>
<path d="M503.001 433.424L503.677 433.034V432.041L503.001 430.977L502.101 430.445L501.425 430.835V431.828L502.101 432.892L503.001 433.424Z" fill="#D1D1D1"/>
<path d="M501.35 431.225L502.138 430.8L502.851 431.19L502.101 431.899L501.35 431.225Z" fill="#FA5C52"/>
<path d="M502.101 431.615L502.851 431.19L503.377 432.041L502.588 433.282L502.101 431.615Z" fill="#C84030"/>
<path d="M502.588 432.467L503.377 432.041V432.857L502.588 433.282V432.467Z" fill="#AB281F"/>
<path d="M502.101 433.566L502.588 433.282V432.467L502.101 431.615L501.35 431.225L500.824 431.509V432.289L501.35 433.176L502.101 433.566Z" fill="#8A1C14"/>
<path d="M497.785 428.104L498.01 427.998L498.948 428.494L498.723 428.991L497.785 428.104Z" fill="white"/>
<path d="M498.723 428.636L498.948 428.494L499.586 429.558L499.361 430.693L498.723 428.636Z" fill="#F4EFE9"/>
<path d="M499.361 429.7L499.586 429.559V430.587L499.361 430.694V429.7Z" fill="#E0DEDC"/>
<path d="M498.723 431.048L499.361 430.693V429.7L498.723 428.636L497.784 428.104L497.109 428.459V429.488L497.784 430.551L498.723 431.048Z" fill="#D1D1D1"/>
<path d="M497.034 428.885L497.822 428.459L498.573 428.849L497.747 429.558L497.034 428.885Z" fill="#FBE979"/>
<path d="M497.785 429.275L498.573 428.849L499.098 429.7L498.31 430.942L497.785 429.275Z" fill="#E3BD5E"/>
<path d="M498.31 430.126L499.098 429.7V430.516L498.31 430.942V430.126Z" fill="#D6A950"/>
<path d="M497.784 431.225L498.31 430.942V430.126L497.784 429.275L497.034 428.885L496.508 429.133V429.984L497.034 430.8L497.784 431.225Z" fill="#CC934C"/>
<path d="M493.506 425.763L493.694 425.657L494.632 426.154L494.407 426.65L493.506 425.763Z" fill="white"/>
<path d="M494.407 426.295L494.632 426.154L495.308 427.218L495.045 428.317L494.407 426.295Z" fill="#F4EFE9"/>
<path d="M495.044 427.324L495.307 427.218V428.211L495.044 428.317V427.324Z" fill="#E0DEDC"/>
<path d="M494.406 428.707L495.045 428.317V427.324L494.406 426.295L493.506 425.763L492.83 426.118V427.111L493.506 428.211L494.406 428.707Z" fill="#D1D1D1"/>
<path d="M492.755 426.508L493.543 426.083L494.256 426.508L493.468 427.217L492.755 426.508Z" fill="#E8F3FF"/>
<path d="M493.468 426.934L494.256 426.508L494.782 427.324L493.993 428.601L493.468 426.934Z" fill="#C8DFE8"/>
<path d="M493.994 427.785L494.782 427.324V428.175L493.994 428.601V427.785Z" fill="#B4CED6"/>
<path d="M493.468 428.849L493.994 428.601V427.785L493.468 426.934L492.755 426.508L492.229 426.792V427.608L492.755 428.459L493.468 428.849Z" fill="#A1B4BF"/>
<path d="M392.541 278.293L394.793 277.087V265.1L392.541 266.341V278.293Z" fill="#A39C95"/>
<path d="M392.917 270.49L591.956 379.089V379.763L392.917 271.2V270.49Z" fill="#A39C95"/>
<path d="M393.329 269.781L592.369 378.38L591.956 379.089L392.917 270.491L393.329 269.781Z" fill="#B5AFA7"/>
<path d="M393.967 269.462L593.007 378.061L592.368 378.38L393.329 269.781L393.967 269.462Z" fill="#E6E1DD"/>
<path d="M590.455 372.812L592.707 371.57L395.506 264L393.255 265.241L590.455 372.812Z" fill="#E6E1DD"/>
<path d="M590.004 387.318L590.98 387.211L592.218 386.076L395.957 279.038L393.705 280.244L590.004 387.318Z" fill="#E6E1DD"/>
<path d="M391.453 278.222V266.412L393.254 265.419L590.454 372.812L592.256 375.791V387.779L590.454 388.772L393.254 281.201L391.453 278.222ZM591.168 386.679V375.685L590.004 373.769L393.705 266.695L392.541 267.298V278.293L393.705 280.244L590.004 387.318L591.168 386.679Z" fill="#D8D1C7"/>
<path d="M393.705 280.244L395.957 279.038L394.793 277.087L392.541 278.293L393.705 280.244Z" fill="#B5AFA7"/>
<path opacity="0.3" d="M332.113 313.866L530.401 422.039L585.951 391.715L387.7 283.542L332.113 313.866Z" fill="black"/>
<path d="M389.201 277.087L391.265 275.952L585.65 381.997L587.677 385.367V388.559L578.144 393.737L383.796 287.727L389.201 280.279V277.087Z" fill="#A39C95"/>
<path d="M585.65 381.997L586.288 381.678L391.903 275.633L391.265 275.952L585.65 381.997Z" fill="#E6E1DD"/>
<path d="M532.016 419.627L588.203 388.984V385.438L531.377 415.052L530.514 417.748V418.918L532.016 419.627Z" fill="#544540"/>
<path d="M532.016 416.081L588.203 385.438L585.876 381.678L529.088 411.293L528.225 413.953L529.538 415.584L532.016 416.081Z" fill="#685750"/>
<path d="M529.688 412.286L585.875 381.678L391.04 275.349L334.89 306.028L340.895 310.922L526.685 411.789L529.688 412.286Z" fill="#836E69"/>
<path d="M332.563 307.269L334.89 306.028L529.688 412.286L532.015 416.081V419.628L529.688 420.904L334.89 314.611L332.563 310.816V307.269Z" fill="#403531"/>
<path d="M332.413 308.085L334.477 306.95L528.825 412.995L530.889 416.365V419.521L528.825 420.656L334.477 314.611L332.413 311.241V308.085Z" fill="#A39C95"/>
<path d="M528.224 418.209L528.9 417.819V415.904L527.586 415.975L528.224 418.209Z" fill="#E0DEDC"/>
<path d="M528.224 416.294L528.9 415.903L527.699 413.917L525.259 413.35L528.224 416.294Z" fill="#F4EFE9"/>
<path d="M526.986 414.308L527.699 413.918L525.972 412.96L525.259 413.35L526.986 414.308Z" fill="white"/>
<path d="M524.021 414.024L525.259 413.35L526.986 414.308L528.224 416.294V418.209L526.986 418.847L525.259 417.925L524.021 415.903V414.024Z" fill="#D1D1D1"/>
<path d="M524.922 414.91V416.01L525.635 417.145L526.611 417.677L526.798 417.57L525.785 417.039L525.109 415.904V414.84L524.922 414.91Z" fill="white"/>
<path d="M525.109 414.84V415.904L525.785 417.039L526.798 417.571L527.324 417.287V416.436L527.211 416.01L526.61 415.088L525.635 414.521L525.109 414.84Z" fill="#B5AFA7"/>
<path d="M337.893 314.327L338.606 313.973V312.093L337.255 312.128L337.893 314.327Z" fill="#E0DEDC"/>
<path d="M337.893 312.447L338.606 312.093L337.367 310.071L334.928 309.504L337.893 312.447Z" fill="#F4EFE9"/>
<path d="M336.654 310.461L337.367 310.071L335.641 309.149L334.928 309.504L336.654 310.461Z" fill="white"/>
<path d="M333.689 310.178L334.928 309.504L336.654 310.461L337.893 312.447V314.327L336.654 315.001L334.928 314.079L333.689 312.057V310.178Z" fill="#D1D1D1"/>
<path d="M334.627 311.1V312.164L335.303 313.299L336.279 313.831L336.429 313.76L335.491 313.228L334.778 312.057V310.993L334.627 311.1Z" fill="white"/>
<path d="M334.778 310.993V312.057L335.491 313.228L336.429 313.76L336.992 313.44V312.589L336.879 312.199L336.279 311.242L335.303 310.709L334.778 310.993Z" fill="#B5AFA7"/>
<path d="M528.825 412.995L529.463 412.676L335.115 306.595L334.477 306.95L528.825 412.995Z" fill="#E6E1DD"/>
<path d="M530.889 416.365L531.527 416.01L529.5 412.641L528.862 412.995L530.889 416.365Z" fill="#D8D1C7"/>
<path d="M530.889 419.521L531.527 419.166V416.01L530.889 416.364V419.521Z" fill="#B5AFA7"/>
<path opacity="0.3" d="M403.388 290.848L396.595 290.033L393.217 288.791L393.179 288.614L392.842 288.649L390.477 286.699L389.313 283.01L388.3 287.337V287.515L389.313 289.784L387.324 290.352L383.871 291.274L378.729 292.622L376.965 292.196L375.764 291.168L374.788 292.586L374.75 292.905L374.788 293.686L373.7 294.005L368.97 295.565L364.504 297.481L362.327 298.899L362.139 298.58L362.214 298.261L360.525 297.764L358.799 297.303L359.287 298.261L358.799 298.119L359.55 299.644L360.375 300.176L357.072 302.801L354.483 305.567L353.319 307.943L352.981 308.759L353.319 309.256L354.933 308.369L354.895 308.511L354.295 309.646L355.045 309.894L359.775 309.433L366.418 307.908L371.11 306.17L371.785 305.78L373.287 306.135L376.139 306.525L376.477 304.503L377.903 302.836L379.742 301.169L379.818 300.495L380.793 299.609L382.22 299.715L385.26 299.431L383.646 298.332L383.195 297.374L383.496 297.126L386.949 293.899L390.139 291.38L390.815 290.813L395.431 291.416L403.388 290.848Z" fill="black"/>
<path d="M361.163 299.218L359.55 298.225L358.799 296.7L359.249 297.09L360.113 297.303L362.327 298.296V298.474L362.177 298.97L361.163 299.218Z" fill="#414042"/>
<path d="M361.163 299.041L359.55 298.048L358.799 296.7L360.525 297.161L362.214 297.658L362.139 297.977L362.327 298.296L362.177 298.793L361.163 299.041Z" fill="#58595B"/>
<path d="M361.163 298.403L359.55 297.41L358.799 295.885L359.55 296.416L360.113 296.452L362.327 297.481V297.658L362.177 298.154L361.163 298.403Z" fill="#414042"/>
<path d="M361.163 298.19L359.55 297.197L358.799 295.885L360.525 296.346L362.214 296.842L362.139 297.161L362.327 297.481L362.177 297.942L361.163 298.19Z" fill="#58595B"/>
<path d="M356.096 306.347L353.319 307.837L352.981 307.34L353.319 306.525L357.072 302.694L360.713 299.821L364.504 297.374L368.97 295.459L373.7 293.899L378.729 292.515L383.871 291.203L387.324 290.245L389.163 289.465L390.965 288.472L392.616 287.479L393.067 287.302L393.217 287.373L378.391 296.346L363.528 305L356.096 306.347Z" fill="#939598"/>
<path d="M355.271 306.631L353.394 307.624L353.131 307.305L353.619 306.595L356.096 305.106L356.172 305.638L355.271 306.631Z" fill="#7D4A5A"/>
<path d="M355.045 308.475L359.775 308.014L366.418 306.489L371.11 304.751L374.976 302.623L379.592 299.289L383.496 295.672L386.949 292.48L390.139 289.926L393.217 287.373L386.649 291.238L365.893 302.304L363.078 303.865L358.949 305.496L354.895 307.057L354.295 308.227L355.045 308.475Z" fill="#6D6E71"/>
<path d="M389.501 288.756L388.3 286.096V285.919L390.477 285.458L392.842 287.408L390.364 288.543L389.501 288.756Z" fill="#414042"/>
<path d="M389.501 288.578L388.3 285.918L389.313 281.556L390.477 285.28L392.842 287.231L390.364 288.33L389.501 288.578Z" fill="#58595B"/>
<path d="M374.788 292.551L374.751 291.451L374.788 291.167L378.729 291.203L378.654 291.487L376.627 292.196L374.788 292.551Z" fill="#414042"/>
<path d="M374.863 292.267L374.788 291.168L375.764 289.713L376.965 290.777L378.729 291.203L376.703 291.912L374.863 292.267Z" fill="#58595B"/>
<path d="M356.096 304.999L353.319 306.524L354.482 304.148L357.072 301.382L360.713 298.509L364.504 296.062L368.97 294.147L373.699 292.586L378.729 291.203L383.871 289.855L387.324 288.933L389.388 288.33L391.34 287.727L392.841 287.231L393.179 287.195L393.217 287.372L378.391 295.033L363.528 303.687L356.096 304.999Z" fill="#939598"/>
<path opacity="0.1" d="M353.319 306.524L354.482 304.148L357.072 301.382L360.713 298.509L364.504 296.062L368.97 294.147L373.699 292.586L378.729 291.203L383.871 289.855L387.324 288.933L389.388 288.33L391.34 287.727L389.501 288.436L372.348 294.395L366.756 296.807L363.04 298.864L360.338 300.708L353.319 306.524Z" fill="black"/>
<path d="M382.858 296.948L383.796 297.516L384.584 297.8L385.26 297.977L382.219 298.296L380.23 298.154V297.942L380.681 297.729L382.858 296.948Z" fill="#414042"/>
<path d="M382.97 295.423L383.646 296.913L385.26 297.977L382.219 298.119L380.23 297.942L382.97 295.423Z" fill="#58595B"/>
<path d="M379.367 299.183L379.93 298.332V298.438L379.405 299.644L377.528 301.169L375.426 303.049L376.139 305.106L373.287 304.716L371.11 304.184V304.006L371.598 303.9L374.976 302.056L379.367 299.183Z" fill="#414042"/>
<path d="M379.592 298.545L379.93 298.332L379.742 299.715L377.903 301.417L376.477 303.084L376.139 305.106L373.287 304.538L371.11 304.006L374.976 301.878L379.592 298.545Z" fill="#58595B"/>
<path d="M354.895 307.057L359.775 306.702L366.418 305.141L371.11 303.403L374.976 301.275L379.592 297.977L383.496 294.359L386.949 291.168L390.965 288.898L393.217 287.373L386.649 289.926L365.893 300.992L363.078 302.517L358.949 304.148L356.096 304.999L354.895 307.057Z" fill="#6D6E71"/>
<path opacity="0.7" d="M363.078 305.177L366.531 304.432L370.547 302.942L374.488 300.814L378.654 297.693L382.557 294.218L378.053 297.516L373.662 300.566L369.871 302.588L366.343 303.9L363.078 305.177Z" fill="white"/>
<path d="M360.113 305.673H359.362L358.799 305.39V304.964L359.362 304.68H360.113L360.638 304.964V305.39L360.113 305.673Z" fill="#231F20"/>
<path d="M360.037 305.602H359.399L358.986 305.354V305L359.399 304.751H360.037L360.488 305V305.354L360.037 305.602Z" fill="#C79E64"/>
<path d="M359.925 305.425H359.549L359.287 305.283V305.07L359.549 304.928H359.925L360.187 305.07V305.283L359.925 305.425Z" fill="#0A0808"/>
<path d="M359.812 305.567H359.625L359.474 305.461V305.354L359.625 305.283H359.812L359.962 305.354V305.461L359.812 305.567Z" fill="white"/>
<path d="M366.23 300.602L366.568 299.644L365.517 298.757L366.906 298.58L370.096 298.615L372.311 298.296L373.137 298.083L373.174 298.19L369.571 299.821L366.23 300.602Z" fill="#414042"/>
<path d="M366.23 300.602L366.08 299.68L365.517 298.757L366.869 298.438L370.059 298.474L373.137 298.083L369.533 299.68L366.23 300.602Z" fill="#58595B"/>
<path d="M390.552 289.359L395.431 289.997L403.388 289.429H402.112L398.922 289.217L396.595 288.791L393.217 287.585L390.552 289.146V289.359Z" fill="#414042"/>
<path d="M395.431 289.82L390.552 289.146L390.965 288.898L393.217 287.373L396.595 288.614L403.388 289.43L395.431 289.82Z" fill="#58595B"/>
<path opacity="0.3" d="M426.584 303.51L419.79 302.694L416.412 301.453L416.375 301.275H416.037L413.672 299.36L412.509 295.636L411.496 299.999V300.176L412.509 302.446L410.52 302.978L407.067 303.935L401.887 305.283L400.123 304.858L398.959 303.794L397.983 305.248L397.908 305.531L397.946 306.347L396.895 306.631L392.166 308.227L387.699 310.142L385.485 311.525L385.335 311.242L385.41 310.887L383.721 310.39L381.957 309.929L382.482 310.887L381.957 310.781L382.745 312.306L383.571 312.802L380.268 315.462L377.678 318.228L376.514 320.605L376.177 321.421L376.514 321.917L378.128 321.03L378.053 321.137L377.49 322.307L378.241 322.555L382.97 322.094L389.576 320.534L394.268 318.796L394.981 318.441L396.482 318.796L399.335 319.186L399.672 317.165L401.061 315.498L402.9 313.795L403.013 313.157L403.989 312.27L405.415 312.377L408.455 312.057L406.804 310.993L406.391 310L406.691 309.752L410.144 306.56L413.335 304.006L414.01 303.439L418.627 304.077L426.584 303.51Z" fill="black"/>
<path d="M384.359 311.88L382.745 310.887L381.957 309.362L382.445 309.752L383.271 309.929L385.485 310.958V311.135L385.372 311.632L384.359 311.88Z" fill="#414042"/>
<path d="M384.359 311.703L382.745 310.674L381.957 309.362L383.721 309.823L385.41 310.319L385.335 310.639L385.485 310.958L385.372 311.419L384.359 311.703Z" fill="#58595B"/>
<path d="M384.359 311.029L382.745 310.071L381.957 308.51L382.745 309.078L383.271 309.113L385.485 310.107V310.319L385.372 310.78L384.359 311.029Z" fill="#414042"/>
<path d="M384.359 310.851L382.745 309.858L381.957 308.51L383.721 308.972L385.41 309.468L385.335 309.823L385.485 310.107L385.372 310.603L384.359 310.851Z" fill="#58595B"/>
<path d="M379.254 318.973L376.514 320.498L376.177 320.002L376.514 319.186L380.268 315.356L383.908 312.483L387.699 310.036L392.166 308.121L396.895 306.524L401.887 305.177L407.067 303.829L410.52 302.907L412.359 302.127L414.16 301.134L415.812 300.105L416.262 299.928L416.412 300.034L401.587 309.007L386.723 317.661L379.254 318.973Z" fill="#939598"/>
<path d="M378.466 319.293L376.552 320.286L376.289 319.966L376.815 319.257L379.254 317.768L379.367 318.264L378.466 319.293Z" fill="#7D4A5A"/>
<path d="M378.241 321.137L382.97 320.676L389.576 319.115L394.268 317.377L398.171 315.249L402.788 311.951L406.691 308.333L410.144 305.141L413.335 302.588L416.412 300.034L409.844 303.9L389.088 314.966L386.273 316.491L382.144 318.158L378.053 319.718L377.49 320.888L378.241 321.137Z" fill="#6D6E71"/>
<path d="M412.659 301.417L411.495 298.757V298.544L413.672 298.119L416.037 300.07L413.56 301.169L412.659 301.417Z" fill="#414042"/>
<path d="M412.659 301.24L411.495 298.544L412.509 294.218L413.672 297.942L416.037 299.857L413.56 300.992L412.659 301.24Z" fill="#58595B"/>
<path d="M397.983 305.212L397.908 304.113L397.983 303.829L401.887 303.865L401.849 304.148L399.823 304.858L397.983 305.212Z" fill="#414042"/>
<path d="M398.021 304.893L397.983 303.829L398.959 302.375L400.123 303.439L401.887 303.865L399.898 304.574L398.021 304.893Z" fill="#58595B"/>
<path d="M379.254 317.661L376.514 319.186L377.678 316.81L380.268 314.043L383.908 311.135L387.699 308.723L392.166 306.808L396.895 305.212L401.887 303.864L407.066 302.517L410.519 301.559L412.584 300.992L414.536 300.353L416.037 299.857H416.375L416.412 300.034L401.587 307.695L386.723 316.349L379.254 317.661Z" fill="#939598"/>
<path opacity="0.1" d="M376.514 319.186L377.678 316.81L380.268 314.044L383.908 311.135L387.699 308.724L392.166 306.808L396.895 305.212L401.887 303.865L407.066 302.517L410.519 301.559L412.584 300.992L414.536 300.354L412.659 301.063L395.544 307.057L389.914 309.433L386.235 311.525L383.533 313.37L376.514 319.186Z" fill="black"/>
<path d="M406.053 309.61L406.991 310.142L407.78 310.461L408.455 310.639L405.415 310.958L403.426 310.781V310.603L403.876 310.39L406.053 309.61Z" fill="#414042"/>
<path d="M406.166 308.085L406.804 309.575L408.455 310.639L405.415 310.745L403.426 310.603L406.166 308.085Z" fill="#58595B"/>
<path d="M402.563 311.844L403.126 310.958V311.064L402.6 312.27L400.724 313.831L398.622 315.71L399.335 317.767L396.482 317.377L394.268 316.845V316.632L394.793 316.562L398.171 314.717L402.563 311.844Z" fill="#414042"/>
<path d="M402.788 311.206L403.126 310.958L402.9 312.376L401.061 314.079L399.673 315.746L399.335 317.767L396.482 317.164L394.268 316.632L398.171 314.54L402.788 311.206Z" fill="#58595B"/>
<path d="M378.053 319.718L382.97 319.363L389.576 317.803L394.268 316.065L398.171 313.937L402.788 310.603L406.691 307.021L410.144 303.794L414.161 301.559L416.413 300.034L409.844 302.552L389.088 313.618L386.273 315.178L382.145 316.81L379.255 317.661L378.053 319.718Z" fill="#6D6E71"/>
<path opacity="0.7" d="M386.273 317.838L389.726 317.058L393.742 315.604L397.683 313.441L401.849 310.355L405.753 306.879L401.249 310.178L396.857 313.228L393.067 315.249L389.538 316.562L386.273 317.838Z" fill="white"/>
<path d="M383.308 318.335H382.52L381.994 318.051V317.626L382.52 317.342H383.308L383.833 317.626V318.051L383.308 318.335Z" fill="#231F20"/>
<path d="M383.233 318.229H382.595L382.182 318.016V317.661L382.595 317.413H383.233L383.683 317.661V318.016L383.233 318.229Z" fill="#C79E64"/>
<path d="M383.12 318.087H382.745L382.445 317.945V317.732L382.745 317.59H383.12L383.383 317.732V317.945L383.12 318.087Z" fill="#0A0808"/>
<path d="M383.008 318.193H382.82L382.67 318.122V318.016L382.82 317.909H383.008L383.158 318.016V318.122L383.008 318.193Z" fill="white"/>
<path d="M389.426 313.263L389.764 312.306L388.713 311.419L390.102 311.206L393.292 311.277L395.506 310.958L396.332 310.709L396.37 310.851L392.766 312.447L389.426 313.263Z" fill="#414042"/>
<path d="M389.426 313.263L389.238 312.341L388.713 311.419L390.064 311.064L393.254 311.135L396.332 310.709L392.729 312.306L389.426 313.263Z" fill="#58595B"/>
<path d="M413.747 301.985L418.627 302.659L426.584 302.091H425.308L422.117 301.878L419.79 301.453L416.412 300.211L413.747 301.807V301.985Z" fill="#414042"/>
<path d="M418.627 302.446L413.747 301.808V301.772L414.16 301.559L416.412 300.034L419.79 301.275L426.584 302.091L418.627 302.446Z" fill="#58595B"/>
<path opacity="0.3" d="M449.742 316.172L442.949 315.356L439.608 314.115L439.571 313.937H439.233L436.831 312.022L435.705 308.298L434.691 312.625V312.838L435.667 315.072L433.715 315.64L430.225 316.597L425.083 317.91L423.319 317.484L422.155 316.455L421.179 317.91L421.104 318.193L421.142 319.009L420.053 319.293L415.324 320.853L410.895 322.804L408.681 324.187L408.531 323.868L408.606 323.549L406.917 323.052L405.153 322.591L405.641 323.549L405.153 323.407L405.941 324.967L406.767 325.464L403.464 328.124L400.874 330.89L399.71 333.267L399.372 334.047L399.71 334.543L401.324 333.692L401.249 333.799L400.686 334.934L401.399 335.217L406.166 334.756L412.772 333.196L417.464 331.458L418.177 331.068L419.64 331.458L422.531 331.813L422.868 329.826L424.257 328.124L426.096 326.457L426.209 325.783L427.147 324.932L428.573 325.003L431.651 324.719L430 323.62L429.587 322.662L429.887 322.414L433.34 319.186L436.53 316.668L437.206 316.101L441.823 316.704L449.742 316.172Z" fill="black"/>
<path d="M407.517 324.542L405.941 323.549L405.153 321.988L405.641 322.414L406.466 322.591L408.681 323.62V323.797L408.568 324.258L407.517 324.542Z" fill="#414042"/>
<path d="M407.517 324.329L405.941 323.336L405.153 321.988L406.917 322.449L408.606 322.946L408.531 323.301L408.681 323.62L408.568 324.081L407.517 324.329Z" fill="#58595B"/>
<path d="M407.517 323.69L405.941 322.697L405.153 321.172L405.941 321.74L406.466 321.775L408.681 322.768V322.946L408.568 323.442L407.517 323.69Z" fill="#414042"/>
<path d="M407.517 323.513L405.941 322.52L405.153 321.172L406.917 321.633L408.606 322.13L408.531 322.449L408.681 322.768L408.568 323.265L407.517 323.513Z" fill="#58595B"/>
<path d="M402.45 331.635L399.71 333.125L399.372 332.628L399.71 331.813L403.464 328.018L407.067 325.109L410.895 322.698L415.324 320.747L420.053 319.186L425.083 317.839L430.225 316.491L433.715 315.533L435.517 314.753L437.319 313.76L439.008 312.767L439.458 312.59L439.608 312.696L424.783 321.669L409.919 330.323L402.45 331.635Z" fill="#939598"/>
<path d="M401.625 331.954L399.748 332.912L399.485 332.628L400.011 331.883L402.45 330.394L402.563 330.926L401.625 331.954Z" fill="#7D4A5A"/>
<path d="M401.399 333.799L406.166 333.337L412.772 331.777L417.463 330.039L421.367 327.911L425.984 324.577L429.887 320.995L433.34 317.768L436.53 315.249L439.608 312.696L433.04 316.526L412.284 327.592L409.431 329.152L405.303 330.784L401.249 332.38L400.686 333.515L401.399 333.799Z" fill="#6D6E71"/>
<path d="M435.855 314.079L434.691 311.419V311.206L436.831 310.781L439.233 312.731L436.756 313.831L435.855 314.079Z" fill="#414042"/>
<path d="M435.855 313.866L434.691 311.206L435.705 306.879L436.831 310.568L439.233 312.519L436.756 313.618L435.855 313.866Z" fill="#58595B"/>
<path d="M421.179 317.838L421.104 316.775L421.179 316.491L425.083 316.526L425.008 316.81L423.018 317.519L421.179 317.838Z" fill="#414042"/>
<path d="M421.217 317.555L421.179 316.491L422.155 315.037L423.319 316.065L425.083 316.526L423.093 317.2L421.217 317.555Z" fill="#58595B"/>
<path d="M402.45 330.323L399.71 331.813L400.874 329.472L403.464 326.705L407.067 323.797L410.895 321.385L415.324 319.435L420.054 317.874L425.083 316.526L430.225 315.179L433.716 314.221L435.78 313.618L437.732 313.015L439.233 312.519L439.571 312.483L439.608 312.696L424.783 320.321L409.92 328.975L402.45 330.323Z" fill="#939598"/>
<path opacity="0.1" d="M399.71 331.812L400.874 329.472L403.464 326.705L407.067 323.797L410.895 321.385L415.324 319.435L420.054 317.874L425.083 316.526L430.225 315.179L433.716 314.221L435.78 313.618L437.732 313.015L435.855 313.724L418.702 319.718L413.11 322.095L409.432 324.187L406.729 326.031L399.71 331.812Z" fill="black"/>
<path d="M429.249 322.237L430.187 322.804L430.976 323.123L431.651 323.301L428.574 323.62L426.622 323.442V323.265L427.072 323.017L429.249 322.237Z" fill="#414042"/>
<path d="M429.362 320.711L430 322.201L431.651 323.301L428.574 323.407L426.622 323.265L429.362 320.711Z" fill="#58595B"/>
<path d="M425.759 324.471L426.321 323.62V323.726L425.759 324.932L423.919 326.457L421.818 328.372L422.531 330.394L419.641 330.039L417.464 329.507V329.294L417.989 329.223L421.367 327.379L425.759 324.471Z" fill="#414042"/>
<path d="M425.984 323.868L426.321 323.62L426.096 325.038L424.257 326.705L422.868 328.408L422.531 330.394L419.641 329.826L417.464 329.294L421.367 327.166L425.984 323.868Z" fill="#58595B"/>
<path d="M401.249 332.38L406.166 331.99L412.772 330.465L417.464 328.691L421.367 326.599L425.984 323.265L429.887 319.683L433.34 316.455L437.319 314.221L439.608 312.696L433.04 315.214L412.284 326.28L409.432 327.805L405.303 329.472L402.45 330.323L401.249 332.38Z" fill="#6D6E71"/>
<path opacity="0.7" d="M409.469 330.465L412.922 329.72L416.901 328.266L420.879 326.102L425.045 323.017L428.949 319.505L424.407 322.839L420.053 325.889L416.262 327.911L412.734 329.223L409.469 330.465Z" fill="white"/>
<path d="M406.504 330.997H405.716L405.19 330.678V330.287L405.716 329.968H406.504L407.029 330.287V330.678L406.504 330.997Z" fill="#231F20"/>
<path d="M406.428 330.89H405.79L405.378 330.642V330.323L405.79 330.075H406.428L406.879 330.323V330.642L406.428 330.89Z" fill="#C79E64"/>
<path d="M406.316 330.748H405.903L405.641 330.571V330.358L405.903 330.216H406.316L406.579 330.358V330.571L406.316 330.748Z" fill="#0A0808"/>
<path d="M406.204 330.855H405.978L405.866 330.784V330.677L405.978 330.571H406.204L406.354 330.677V330.784L406.204 330.855Z" fill="white"/>
<path d="M412.622 325.889L412.959 324.932L411.909 324.045L413.297 323.868L416.488 323.939L418.702 323.62L419.49 323.371L419.528 323.513L415.925 325.109L412.622 325.889Z" fill="#414042"/>
<path d="M412.622 325.889L412.434 325.003L411.909 324.045L413.26 323.726L416.45 323.797L419.49 323.371L415.887 324.967L412.622 325.889Z" fill="#58595B"/>
<path d="M436.943 314.647L441.823 315.285L449.742 314.753L448.504 314.718L445.313 314.505L442.949 314.115L439.608 312.873L436.943 314.469V314.647Z" fill="#414042"/>
<path d="M441.823 315.108L436.943 314.469V314.434L437.319 314.221L439.608 312.696L442.949 313.937L449.742 314.753L441.823 315.108Z" fill="#58595B"/>
<path opacity="0.3" d="M472.938 328.798L466.144 327.982L462.804 326.741L462.729 326.563L462.391 326.599L460.026 324.648L458.9 320.959L457.849 325.286V325.464L458.863 327.734L456.911 328.301L453.42 329.223L448.278 330.571L446.514 330.145L445.313 329.117L444.375 330.535L444.3 330.855L444.337 331.67L443.286 331.954L438.52 333.515L434.091 335.43L431.876 336.848L431.726 336.529L431.801 336.21L430.112 335.714L428.348 335.253L428.836 336.21L428.348 336.068L429.136 337.593L429.962 338.125L426.659 340.75L424.069 343.516L422.868 345.893L422.531 346.708L422.868 347.205L424.52 346.318L424.445 346.46L423.844 347.595L424.595 347.843L429.324 347.382L435.967 345.857L440.659 344.119L441.372 343.729L442.836 344.084L445.726 344.474L446.026 342.452L447.453 340.785L449.292 339.118L449.404 338.445L450.343 337.558L451.769 337.664L454.847 337.381L453.195 336.281L452.782 335.323L453.045 335.075L456.536 331.848L459.688 329.33L460.402 328.762L464.981 329.365L472.938 328.798Z" fill="black"/>
<path d="M430.713 337.168L429.136 336.175L428.348 334.65L428.836 335.04L429.662 335.253L431.876 336.246V336.458L431.764 336.92L430.713 337.168Z" fill="#414042"/>
<path d="M430.713 336.99L429.136 335.997L428.348 334.65L430.112 335.111L431.801 335.607L431.726 335.962L431.876 336.246L431.764 336.742L430.713 336.99Z" fill="#58595B"/>
<path d="M430.713 336.352L429.136 335.359L428.348 333.834L429.136 334.366L429.662 334.401L431.876 335.43V335.607L431.764 336.104L430.713 336.352Z" fill="#414042"/>
<path d="M430.713 336.175L429.136 335.146L428.348 333.834L430.112 334.295L431.801 334.792L431.726 335.111L431.876 335.43L431.764 335.927L430.713 336.175Z" fill="#58595B"/>
<path d="M425.646 344.297L422.868 345.786L422.531 345.29L422.868 344.474L426.659 340.643L430.262 337.771L434.091 335.359L438.52 333.408L443.286 331.848L448.278 330.465L453.42 329.152L456.911 328.195L458.713 327.414L460.514 326.421L462.203 325.428L462.616 325.251L462.804 325.322L447.978 334.295L433.077 342.949L425.646 344.297Z" fill="#939598"/>
<path d="M424.82 344.58L422.943 345.573L422.681 345.254L423.206 344.545L425.646 343.055L425.758 343.587L424.82 344.58Z" fill="#7D4A5A"/>
<path d="M424.595 346.424L429.324 345.963L435.967 344.438L440.659 342.701L444.563 340.573L449.142 337.239L453.045 333.656L456.536 330.429L459.688 327.911L462.804 325.322L456.198 329.188L435.479 340.253L432.627 341.778L428.498 343.445L424.445 345.041L423.844 346.176L424.595 346.424Z" fill="#6D6E71"/>
<path d="M459.05 326.705L457.849 324.045V323.868L460.026 323.407L462.391 325.357L459.951 326.492L459.05 326.705Z" fill="#414042"/>
<path d="M459.05 326.528L457.849 323.868L458.9 319.541L460.026 323.229L462.391 325.18L459.951 326.279L459.05 326.528Z" fill="#58595B"/>
<path d="M444.337 330.5L444.3 329.436L444.375 329.152H448.279L448.203 329.436L446.214 330.181L444.337 330.5Z" fill="#414042"/>
<path d="M444.413 330.216L444.375 329.152L445.313 327.663L446.514 328.727L448.278 329.152L446.252 329.862L444.413 330.216Z" fill="#58595B"/>
<path d="M425.646 342.984L422.868 344.474L424.069 342.098L426.659 339.331L430.262 336.458L434.091 334.011L438.52 332.096L443.286 330.535L448.278 329.152L453.42 327.805L456.911 326.882L458.938 326.279L460.927 325.677L462.391 325.18L462.729 325.145L462.804 325.322L447.978 332.983L433.077 341.637L425.646 342.984Z" fill="#939598"/>
<path opacity="0.1" d="M422.868 344.474L424.069 342.098L426.659 339.331L430.262 336.458L434.091 334.011L438.52 332.096L443.286 330.535L448.278 329.152L453.42 327.805L456.911 326.882L458.938 326.279L460.927 325.677L459.05 326.386L441.898 332.38L436.305 334.756L432.627 336.813L429.924 338.657L422.868 344.474Z" fill="black"/>
<path d="M452.445 334.898L453.345 335.465L454.171 335.785L454.847 335.962L451.769 336.246L449.817 336.104V335.927L450.268 335.678L452.445 334.898Z" fill="#414042"/>
<path d="M452.557 333.373L453.195 334.862L454.847 335.962L451.769 336.068L449.817 335.926L452.557 333.373Z" fill="#58595B"/>
<path d="M448.916 337.132L449.517 336.281V336.387L448.954 337.593L447.115 339.118L445.013 341.034L445.726 343.055L442.836 342.665L440.659 342.133V341.956L441.185 341.849L444.563 340.005L448.916 337.132Z" fill="#414042"/>
<path d="M449.142 336.494L449.517 336.281L449.292 337.7L447.453 339.367L446.026 341.034L445.726 343.055L442.836 342.488L440.659 341.956L444.563 339.828L449.142 336.494Z" fill="#58595B"/>
<path d="M424.445 345.041L429.324 344.651L435.967 343.126L440.659 341.353L444.563 339.26L449.142 335.926L453.045 332.309L456.536 329.117L460.514 326.882L462.804 325.322L456.198 327.875L435.48 338.941L432.627 340.466L428.498 342.133L425.646 342.984L424.445 345.041Z" fill="#6D6E71"/>
<path opacity="0.7" d="M432.665 343.126L436.118 342.381L440.096 340.892L444.037 338.764L448.241 335.643L452.144 332.167L447.603 335.501L443.249 338.551L439.458 340.537L435.893 341.849L432.665 343.126Z" fill="white"/>
<path d="M429.662 343.622H428.911L428.386 343.339V342.913L428.911 342.629H429.662L430.225 342.913V343.339L429.662 343.622Z" fill="#231F20"/>
<path d="M429.625 343.552H428.986L428.536 343.303V342.949L428.986 342.736H429.625L430.037 342.949V343.303L429.625 343.552Z" fill="#C79E64"/>
<path d="M429.474 343.374H429.099L428.836 343.232V343.02L429.099 342.878H429.474L429.775 343.02V343.232L429.474 343.374Z" fill="#0A0808"/>
<path d="M429.399 343.516H429.174L429.062 343.41V343.303L429.174 343.232H429.399L429.549 343.303V343.41L429.399 343.516Z" fill="white"/>
<path d="M435.817 338.551L436.117 337.593L435.104 336.707L436.493 336.529L439.683 336.6L441.898 336.246L442.686 336.033L442.723 336.175L439.12 337.771L435.817 338.551Z" fill="#414042"/>
<path d="M435.817 338.551L435.629 337.629L435.104 336.707L436.455 336.387L439.646 336.458L442.686 336.033L439.083 337.629L435.817 338.551Z" fill="#58595B"/>
<path d="M460.101 327.308L464.981 327.946L472.938 327.379H471.699L468.509 327.166L466.144 326.776L462.804 325.535L460.101 327.095V327.308Z" fill="#414042"/>
<path d="M464.981 327.769L460.101 327.095H460.139L460.514 326.882L462.804 325.322L466.144 326.563L472.938 327.379L464.981 327.769Z" fill="#58595B"/>
<path opacity="0.3" d="M496.133 341.459L489.34 340.644L485.999 339.402L485.924 339.225L485.586 339.26L483.222 337.31L482.096 333.586L481.045 337.948V338.125L482.058 340.395L480.107 340.963L476.616 341.885L471.474 343.233L469.71 342.807L468.509 341.743L467.533 343.197L467.495 343.481L467.533 344.297L466.444 344.616L461.715 346.176L457.249 348.092L455.072 349.51L454.922 349.191L454.959 348.872L453.27 348.34L451.544 347.914L452.032 348.872L451.544 348.73L452.332 350.255L453.158 350.787L449.855 353.412L447.265 356.178L446.064 358.554L445.726 359.37L446.064 359.867L447.715 358.98L447.64 359.086L447.04 360.257L447.79 360.505L452.519 360.044L459.163 358.519L463.855 356.781L464.53 356.391L466.032 356.745L468.922 357.136L469.222 355.114L470.648 353.447L472.487 351.745L472.6 351.106L473.538 350.22L474.964 350.326L478.042 350.007L476.391 348.943L475.978 347.985L476.241 347.737L479.731 344.509L482.884 341.991L483.597 341.424L488.176 342.027L496.133 341.459Z" fill="black"/>
<path d="M453.908 349.829L452.332 348.836L451.544 347.311L452.032 347.701L452.857 347.914L455.072 348.907V349.085L454.922 349.581L453.908 349.829Z" fill="#414042"/>
<path d="M453.908 349.652L452.332 348.659L451.544 347.311L453.27 347.772L454.959 348.269L454.922 348.588L455.072 348.907L454.922 349.404L453.908 349.652Z" fill="#58595B"/>
<path d="M453.908 349.014L452.332 348.021L451.544 346.46L452.332 347.027L452.857 347.063L455.072 348.056V348.269L454.922 348.73L453.908 349.014Z" fill="#414042"/>
<path d="M453.908 348.801L452.332 347.808L451.544 346.46L453.27 346.921L454.959 347.453L454.922 347.772L455.072 348.056L454.922 348.552L453.908 348.801Z" fill="#58595B"/>
<path d="M448.841 356.958L446.064 358.448L445.726 357.951L446.064 357.136L449.855 353.305L453.458 350.432L457.249 347.985L461.715 346.07L466.444 344.509L471.474 343.126L476.616 341.779L480.106 340.856L481.908 340.076L483.71 339.083L485.399 338.09L485.812 337.877L485.999 337.984L471.174 346.957L456.273 355.611L448.841 356.958Z" fill="#939598"/>
<path d="M448.015 357.242L446.139 358.235L445.876 357.916L446.364 357.206L448.841 355.717L448.916 356.213L448.015 357.242Z" fill="#7D4A5A"/>
<path d="M447.79 359.086L452.519 358.625L459.163 357.065L463.854 355.327L467.72 353.234L472.337 349.9L476.24 346.283L479.731 343.091L482.884 340.537L485.999 337.984L479.393 341.849L458.637 352.915L455.822 354.44L451.694 356.107L447.64 357.668L447.04 358.838L447.79 359.086Z" fill="#6D6E71"/>
<path d="M482.246 339.367L481.045 336.707V336.529L483.222 336.068L485.586 338.019L483.147 339.118L482.246 339.367Z" fill="#414042"/>
<path d="M482.246 339.189L481.045 336.529L482.096 332.167L483.222 335.891L485.586 337.806L483.147 338.941L482.246 339.189Z" fill="#58595B"/>
<path d="M467.533 343.162L467.495 342.062L467.533 341.779L471.474 341.814L471.399 342.098L469.41 342.807L467.533 343.162Z" fill="#414042"/>
<path d="M467.608 342.878L467.533 341.779L468.509 340.324L469.71 341.389L471.474 341.814L469.447 342.523L467.608 342.878Z" fill="#58595B"/>
<path d="M448.841 355.61L446.064 357.135L447.265 354.759L449.855 351.993L453.458 349.085L457.249 346.673L461.715 344.758L466.444 343.162L471.474 341.814L476.616 340.466L480.106 339.544L482.133 338.941L484.085 338.303L485.586 337.806H485.924L485.999 337.983L471.173 345.644L456.273 354.298L448.841 355.61Z" fill="#939598"/>
<path opacity="0.1" d="M446.064 357.136L447.265 354.759L449.855 351.993L453.458 349.085L457.249 346.673L461.715 344.758L466.444 343.162L471.474 341.814L476.616 340.466L480.106 339.544L482.133 338.941L484.085 338.303L482.246 339.048L465.093 345.006L459.501 347.418L455.785 349.475L453.12 351.319L446.064 357.136Z" fill="black"/>
<path d="M475.64 347.56L476.541 348.127L477.367 348.411L478.042 348.588L474.964 348.908L473.013 348.766V348.553L473.463 348.34L475.64 347.56Z" fill="#414042"/>
<path d="M475.753 346.035L476.391 347.524L478.042 348.588L474.964 348.73L473.013 348.553L475.753 346.035Z" fill="#58595B"/>
<path d="M472.112 349.794L472.712 348.907V349.049L472.149 350.219L470.31 351.78L468.208 353.66L468.922 355.717L466.031 355.327L463.854 354.795V354.617L464.342 354.511L467.72 352.667L472.112 349.794Z" fill="#414042"/>
<path d="M472.337 349.155L472.712 348.907L472.487 350.326L470.648 352.028L469.222 353.695L468.922 355.717L466.031 355.149L463.854 354.617L467.72 352.489L472.337 349.155Z" fill="#58595B"/>
<path d="M447.64 357.668L452.519 357.313L459.163 355.752L463.855 354.015L467.72 351.887L472.337 348.588L476.241 344.971L479.731 341.743L483.71 339.509L485.999 337.984L479.393 340.502L458.637 351.567L455.822 353.128L451.694 354.759L448.841 355.611L447.64 357.668Z" fill="#6D6E71"/>
<path opacity="0.7" d="M455.86 355.788L459.313 355.043L463.292 353.553L467.233 351.39L471.436 348.304L475.302 344.829L470.798 348.127L466.445 351.177L462.654 353.199L459.088 354.511L455.86 355.788Z" fill="white"/>
<path d="M452.857 356.284H452.107L451.581 356.001V355.575L452.107 355.291H452.857L453.42 355.575V356.001L452.857 356.284Z" fill="#231F20"/>
<path d="M452.782 356.178H452.182L451.731 355.965V355.61L452.182 355.362H452.782L453.233 355.61V355.965L452.782 356.178Z" fill="#C79E64"/>
<path d="M452.67 356.036H452.294L452.032 355.894V355.681L452.294 355.54H452.67L452.933 355.681V355.894L452.67 356.036Z" fill="#0A0808"/>
<path d="M452.595 356.142H452.369L452.219 356.072V355.965L452.369 355.894H452.595L452.707 355.965V356.072L452.595 356.142Z" fill="white"/>
<path d="M459.013 351.213L459.313 350.255L458.3 349.368L459.689 349.191L462.879 349.226L465.093 348.907L465.881 348.659L465.919 348.801L462.316 350.432L459.013 351.213Z" fill="#414042"/>
<path d="M459.013 351.213L458.825 350.29L458.3 349.368L459.651 349.049L462.841 349.085L465.881 348.659L462.278 350.29L459.013 351.213Z" fill="#58595B"/>
<path d="M483.297 339.97L488.176 340.608L496.133 340.041H494.894L491.704 339.828L489.339 339.402L485.999 338.196L483.297 339.757V339.97Z" fill="#414042"/>
<path d="M488.176 340.395L483.297 339.757L483.709 339.509L485.999 337.984L489.339 339.225L496.133 340.041L488.176 340.395Z" fill="#58595B"/>
<path opacity="0.3" d="M519.329 354.121L512.535 353.305L509.195 352.064L509.12 351.886H508.782L506.418 349.971L505.254 346.247L504.241 350.609V350.787L505.254 353.057L503.302 353.589L499.812 354.546L494.67 355.894L492.906 355.468L491.704 354.404L490.766 355.859L490.691 356.142L490.729 356.958L489.64 357.242L484.911 358.838L480.444 360.753L478.268 362.136L478.117 361.852L478.155 361.498L476.466 361.001L474.739 360.54L475.227 361.498L474.739 361.356L475.528 362.916L476.353 363.413L473.013 366.073L470.461 368.839L469.26 371.216L468.922 371.996L469.26 372.528L470.911 371.641L470.836 371.748L470.235 372.918L470.986 373.166L475.715 372.705L482.359 371.145L487.05 369.407L487.726 369.052L489.227 369.407L492.117 369.797L492.418 367.775L493.844 366.108L495.683 364.406L495.758 363.732L496.734 362.845L498.16 362.987L501.238 362.668L499.586 361.604L499.174 360.611L499.436 360.363L502.927 357.135L506.08 354.617L506.755 354.05L511.372 354.653L519.329 354.121Z" fill="black"/>
<path d="M477.104 362.491L475.528 361.498L474.739 359.973L475.227 360.363L476.053 360.54L478.268 361.569V361.746L478.117 362.242L477.104 362.491Z" fill="#414042"/>
<path d="M477.104 362.313L475.528 361.285L474.739 359.973L476.466 360.398L478.155 360.93L478.117 361.249L478.268 361.569L478.117 362.03L477.104 362.313Z" fill="#58595B"/>
<path d="M477.104 361.64L475.528 360.647L474.739 359.122L475.528 359.689L476.053 359.724L478.268 360.718V360.93L478.117 361.391L477.104 361.64Z" fill="#414042"/>
<path d="M477.104 361.462L475.528 360.469L474.739 359.122L476.466 359.583L478.155 360.079L478.117 360.398L478.268 360.718L478.117 361.214L477.104 361.462Z" fill="#58595B"/>
<path d="M472.037 369.584L469.26 371.074L468.922 370.577L469.26 369.797L473.013 365.967L476.654 363.058L480.444 360.647L484.911 358.731L489.64 357.135L494.67 355.788L499.812 354.44L503.302 353.518L505.104 352.702L506.905 351.744L508.557 350.716L509.007 350.539L509.195 350.645L494.332 359.618L479.469 368.272L472.037 369.584Z" fill="#939598"/>
<path d="M471.211 369.903L469.335 370.861L469.072 370.577L469.56 369.868L472.037 368.343L472.112 368.875L471.211 369.903Z" fill="#7D4A5A"/>
<path d="M470.986 371.748L475.715 371.287L482.359 369.726L487.05 367.988L490.916 365.86L495.533 362.562L499.436 358.944L502.927 355.752L506.08 353.199L509.195 350.645L502.589 354.511L481.833 365.541L479.018 367.102L474.89 368.733L470.836 370.329L470.235 371.499L470.986 371.748Z" fill="#6D6E71"/>
<path d="M505.442 352.028L504.241 349.368V349.156L506.418 348.73L508.782 350.681L506.305 351.78L505.442 352.028Z" fill="#414042"/>
<path d="M505.442 351.851L504.241 349.155L505.254 344.828L506.418 348.517L508.782 350.468L506.305 351.603L505.442 351.851Z" fill="#58595B"/>
<path d="M490.729 355.788L490.691 354.724L490.766 354.44H494.67L494.595 354.759L492.568 355.468L490.729 355.788Z" fill="#414042"/>
<path d="M490.804 355.504L490.766 354.44L491.704 352.986L492.906 354.05L494.67 354.44L492.643 355.149L490.804 355.504Z" fill="#58595B"/>
<path d="M472.037 368.272L469.259 369.797L470.46 367.421L473.013 364.654L476.653 361.746L480.444 359.334L484.911 357.384L489.64 355.823L494.669 354.44L499.812 353.128L503.302 352.17L505.329 351.603L507.281 350.964L508.782 350.468H509.12L509.195 350.645L494.332 358.306L479.468 366.96L472.037 368.272Z" fill="#939598"/>
<path opacity="0.1" d="M469.259 369.797L470.46 367.421L473.013 364.655L476.653 361.746L480.444 359.335L484.911 357.384L489.64 355.823L494.669 354.44L499.812 353.128L503.302 352.17L505.329 351.603L507.281 350.964L505.442 351.674L488.289 357.668L482.696 360.044L478.981 362.136L476.316 363.981L469.259 369.797Z" fill="black"/>
<path d="M498.836 360.186L499.737 360.753L500.525 361.072L501.238 361.25L498.16 361.569L496.208 361.391V361.214L496.621 361.001L498.836 360.186Z" fill="#414042"/>
<path d="M498.948 358.661L499.587 360.186L501.238 361.25L498.16 361.356L496.208 361.214L498.948 358.661Z" fill="#58595B"/>
<path d="M495.308 362.42L495.871 361.569V361.675L495.345 362.881L493.469 364.406L491.367 366.321L492.117 368.343L489.227 367.988L487.05 367.456V367.243L487.538 367.172L490.916 365.328L495.308 362.42Z" fill="#414042"/>
<path d="M495.533 361.817L495.871 361.569L495.683 362.987L493.844 364.69L492.418 366.357L492.117 368.343L489.227 367.775L487.05 367.243L490.916 365.115L495.533 361.817Z" fill="#58595B"/>
<path d="M470.836 370.329L475.715 369.974L482.359 368.414L487.05 366.676L490.916 364.548L495.533 361.214L499.436 357.632L502.927 354.404L506.905 352.17L509.195 350.645L502.589 353.163L481.833 364.229L479.018 365.789L474.89 367.421L472.037 368.272L470.836 370.329Z" fill="#6D6E71"/>
<path opacity="0.7" d="M479.018 368.414L482.509 367.669L486.487 366.215L490.428 364.051L494.632 360.966L498.498 357.49L493.994 360.788L489.64 363.839L485.849 365.86L482.284 367.172L479.018 368.414Z" fill="white"/>
<path d="M476.053 368.946H475.302L474.739 368.627V368.237L475.302 367.953H476.053L476.579 368.237V368.627L476.053 368.946Z" fill="#231F20"/>
<path d="M475.978 368.839H475.377L474.927 368.591V368.272L475.377 368.024H475.978L476.428 368.272V368.591L475.978 368.839Z" fill="#C79E64"/>
<path d="M475.865 368.698H475.49L475.227 368.556V368.343L475.49 368.201H475.865L476.128 368.343V368.556L475.865 368.698Z" fill="#0A0808"/>
<path d="M475.753 368.804H475.565L475.415 368.733V368.627L475.565 368.52H475.753L475.903 368.627V368.733L475.753 368.804Z" fill="white"/>
<path d="M482.208 363.874L482.509 362.881L481.495 362.03L482.884 361.817L486.074 361.888L488.289 361.569L489.077 361.321L489.115 361.462L485.511 363.058L482.208 363.874Z" fill="#414042"/>
<path d="M482.208 363.874L482.021 362.952L481.495 362.03L482.809 361.675L485.999 361.746L489.077 361.321L485.474 362.916L482.208 363.874Z" fill="#58595B"/>
<path d="M506.492 352.596L511.372 353.234L519.329 352.702L518.09 352.667L514.9 352.489L512.535 352.064L509.195 350.822L506.492 352.418V352.596Z" fill="#414042"/>
<path d="M511.372 353.057L506.492 352.418V352.383L506.905 352.17L509.195 350.645L512.535 351.886L519.329 352.702L511.372 353.057Z" fill="#58595B"/>
<path opacity="0.3" d="M550.632 366.002L543.838 365.186L540.46 363.945L540.423 363.768H540.085L537.72 361.852L536.557 358.128L535.543 362.491V362.668L536.557 364.903L534.567 365.47L531.114 366.428L525.935 367.775L524.208 367.35L523.007 366.286L522.031 367.74L521.956 368.024L521.994 368.839L520.905 369.123L516.214 370.684L511.747 372.634L509.533 374.018L509.383 373.734L509.458 373.379L507.769 372.883L506.004 372.422L506.492 373.379L506.004 373.273L506.793 374.798L507.618 375.294L504.315 377.954L501.726 380.721L500.562 383.097L500.224 383.913L500.562 384.409L502.176 383.523L502.101 383.629L501.538 384.799L502.251 385.048L507.018 384.587L513.624 383.026L518.315 381.288L519.029 380.934L520.53 381.288L523.382 381.678L523.72 379.657L525.109 377.99L526.948 376.287L527.061 375.614L528.037 374.762L529.463 374.869L532.503 374.55L530.852 373.486L530.439 372.492L530.739 372.244L534.192 369.052L537.382 366.499L538.058 365.931L542.675 366.57L550.632 366.002Z" fill="black"/>
<path d="M508.407 374.372L506.793 373.379L506.005 371.854L506.493 372.244L507.318 372.421L509.533 373.45V373.627L509.42 374.124L508.407 374.372Z" fill="#414042"/>
<path d="M508.407 374.195L506.793 373.166L506.005 371.854L507.769 372.28L509.458 372.812L509.383 373.131L509.533 373.45L509.42 373.911L508.407 374.195Z" fill="#58595B"/>
<path d="M508.407 373.521L506.793 372.528L506.005 371.003L506.793 371.57L507.318 371.606L509.533 372.599V372.812L509.42 373.273L508.407 373.521Z" fill="#414042"/>
<path d="M508.407 373.344L506.793 372.351L506.005 371.003L507.769 371.464L509.458 371.961L509.383 372.315L509.533 372.599L509.42 373.095L508.407 373.344Z" fill="#58595B"/>
<path d="M503.302 381.466L500.562 382.991L500.224 382.494L500.562 381.678L504.315 377.848L507.919 374.975L511.747 372.528L516.214 370.613L520.905 369.052L525.935 367.669L531.114 366.321L534.567 365.399L536.369 364.619L538.208 363.626L539.86 362.597L540.31 362.42L540.46 362.526L525.634 371.499L510.771 380.153L503.302 381.466Z" fill="#939598"/>
<path d="M502.514 381.785L500.6 382.778L500.337 382.459L500.862 381.749L503.302 380.26L503.415 380.756L502.514 381.785Z" fill="#7D4A5A"/>
<path d="M502.251 383.629L507.018 383.168L513.624 381.607L518.315 379.87L522.219 377.742L526.836 374.443L530.739 370.826L534.192 367.598L537.382 365.08L540.46 362.526L533.892 366.392L513.136 377.458L510.321 378.983L506.155 380.614L502.101 382.21L501.538 383.381L502.251 383.629Z" fill="#6D6E71"/>
<path d="M536.707 363.91L535.543 361.25V361.072L537.72 360.611L540.085 362.562L537.608 363.662L536.707 363.91Z" fill="#414042"/>
<path d="M536.707 363.732L535.543 361.072L536.557 356.71L537.72 360.434L540.085 362.349L537.608 363.484L536.707 363.732Z" fill="#58595B"/>
<path d="M522.031 367.704L521.956 366.605L522.031 366.321L525.935 366.357L525.897 366.64L523.87 367.35L522.031 367.704Z" fill="#414042"/>
<path d="M522.069 367.385L522.031 366.321L523.007 364.867L524.208 365.931L525.935 366.357L523.945 367.066L522.069 367.385Z" fill="#58595B"/>
<path d="M503.302 380.153L500.562 381.678L501.726 379.302L504.315 376.536L507.919 373.627L511.747 371.216L516.213 369.265L520.905 367.704L525.935 366.357L531.114 365.009L534.567 364.051L536.632 363.484L538.583 362.845L540.085 362.349H540.422L540.46 362.526L525.634 370.187L510.771 378.805L503.302 380.153Z" fill="#939598"/>
<path opacity="0.1" d="M500.562 381.678L501.726 379.302L504.315 376.536L507.919 373.627L511.747 371.216L516.213 369.265L520.905 367.704L525.935 366.357L531.114 365.009L534.567 364.051L536.632 363.484L538.583 362.845L536.707 363.555L519.591 369.549L513.961 371.925L510.283 374.017L507.581 375.862L500.562 381.678Z" fill="black"/>
<path d="M530.101 372.102L531.039 372.634L531.827 372.954L532.503 373.131L529.463 373.45L527.473 373.273V373.095L527.924 372.883L530.101 372.102Z" fill="#414042"/>
<path d="M530.213 370.542L530.851 372.067L532.503 373.131L529.463 373.237L527.473 373.095L530.213 370.542Z" fill="#58595B"/>
<path d="M526.61 374.337L527.173 373.45V373.556L526.648 374.762L524.771 376.323L522.669 378.202L523.382 380.26L520.53 379.869L518.315 379.337V379.125L518.841 379.054L522.219 377.209L526.61 374.337Z" fill="#414042"/>
<path d="M526.836 373.698L527.173 373.45L526.948 374.869L525.109 376.571L523.72 378.238L523.382 380.26L520.53 379.657L518.315 379.125L522.219 377.032L526.836 373.698Z" fill="#58595B"/>
<path d="M502.101 382.21L507.018 381.856L513.624 380.295L518.315 378.557L522.219 376.429L526.836 373.095L530.739 369.513L534.192 366.286L538.171 364.051L540.46 362.526L533.892 365.044L513.136 376.11L510.321 377.671L506.155 379.302L503.302 380.153L502.101 382.21Z" fill="#6D6E71"/>
<path opacity="0.7" d="M510.321 380.295L513.774 379.55L517.752 378.096L521.731 375.933L525.897 372.847L529.801 369.336L525.259 372.67L520.905 375.72L517.114 377.742L513.586 379.054L510.321 380.295Z" fill="white"/>
<path d="M507.356 380.827H506.567L506.042 380.543V380.118L506.567 379.834H507.356L507.881 380.118V380.543L507.356 380.827Z" fill="#231F20"/>
<path d="M507.28 380.721H506.642L506.229 380.508V380.153L506.642 379.905H507.28L507.731 380.153V380.508L507.28 380.721Z" fill="#C79E64"/>
<path d="M507.168 380.579H506.755L506.492 380.437V380.224L506.755 380.082H507.168L507.431 380.224V380.437L507.168 380.579Z" fill="#0A0808"/>
<path d="M507.056 380.685H506.83L506.718 380.614V380.508L506.83 380.402H507.056L507.206 380.508V380.614L507.056 380.685Z" fill="white"/>
<path d="M513.474 375.755L513.811 374.798L512.76 373.911L514.149 373.698L517.34 373.769L519.554 373.45L520.342 373.202L520.38 373.344L516.814 374.94L513.474 375.755Z" fill="#414042"/>
<path d="M513.474 375.755L513.286 374.833L512.76 373.911L514.112 373.556L517.302 373.627L520.342 373.202L516.777 374.798L513.474 375.755Z" fill="#58595B"/>
<path d="M537.795 364.477L542.674 365.115L550.631 364.583H549.355L546.165 364.371L543.838 363.945L540.46 362.704L537.795 364.3V364.477Z" fill="#414042"/>
<path d="M542.674 364.938L537.795 364.3V364.264L538.17 364.051L540.46 362.526L543.838 363.768L550.631 364.583L542.674 364.938Z" fill="#58595B"/>
<path opacity="0.3" d="M565.72 379.408L558.927 378.593L555.549 377.351L555.511 377.174L555.173 377.209L552.809 375.259L551.645 371.535L550.632 375.897V376.075L551.645 378.344L549.656 378.912L546.203 379.834L541.023 381.182L539.297 380.756L538.096 379.692L537.12 381.146L537.082 381.466V382.246L536.031 382.565L531.302 384.126L526.836 386.041L524.621 387.459L524.471 387.14L524.546 386.821L522.857 386.324L521.131 385.863L521.619 386.786L521.131 386.679L521.881 388.204L522.707 388.736L519.404 391.361L516.814 394.127L515.651 396.503L515.313 397.319L515.651 397.816L517.265 396.929L517.19 397.035L516.627 398.206L517.377 398.454L522.107 397.993L528.75 396.468L533.442 394.73L534.117 394.34L535.618 394.695L538.471 395.085L538.809 393.063L540.235 391.396L542.037 389.729L542.149 389.055L543.125 388.169L544.551 388.275L547.592 387.991L545.94 386.892L545.527 385.934L545.828 385.686L549.281 382.459L552.471 379.94L553.147 379.373L557.763 379.976L565.72 379.408Z" fill="black"/>
<path d="M523.495 387.779L521.881 386.786L521.131 385.26L521.581 385.651L522.407 385.863L524.621 386.856V387.034L524.509 387.53L523.495 387.779Z" fill="#414042"/>
<path d="M523.495 387.601L521.881 386.608L521.131 385.26L522.857 385.722L524.546 386.218L524.471 386.537L524.621 386.856L524.509 387.353L523.495 387.601Z" fill="#58595B"/>
<path d="M523.495 386.963L521.881 385.97L521.131 384.409L521.881 384.977L522.407 385.012L524.621 386.041V386.218L524.509 386.715L523.495 386.963Z" fill="#414042"/>
<path d="M523.495 386.75L521.881 385.757L521.131 384.409L522.857 384.87L524.546 385.402L524.471 385.722L524.621 386.041L524.509 386.502L523.495 386.75Z" fill="#58595B"/>
<path d="M518.391 394.908L515.651 396.397L515.313 395.901L515.651 395.085L519.404 391.254L523.045 388.382L526.836 385.934L531.302 384.019L536.031 382.459L541.023 381.075L546.203 379.728L549.656 378.806L551.495 378.025L553.297 377.032L554.948 376.039L555.399 375.862L555.549 375.933L540.723 384.906L525.86 393.56L518.391 394.908Z" fill="#939598"/>
<path d="M517.602 395.191L515.688 396.184L515.425 395.865L515.951 395.156L518.39 393.666L518.503 394.198L517.602 395.191Z" fill="#7D4A5A"/>
<path d="M517.377 397.035L522.106 396.574L528.75 395.049L533.441 393.276L537.307 391.183L541.924 387.849L545.827 384.267L549.28 381.04L552.471 378.486L555.549 375.933L548.98 379.798L528.224 390.864L525.409 392.389L521.281 394.056L517.189 395.617L516.626 396.787L517.377 397.035Z" fill="#6D6E71"/>
<path d="M551.795 377.316L550.632 374.656V374.479L552.809 374.018L555.173 375.968L552.696 377.068L551.795 377.316Z" fill="#414042"/>
<path d="M551.795 377.139L550.632 374.479L551.645 370.116L552.809 373.84L555.173 375.791L552.696 376.89L551.795 377.139Z" fill="#58595B"/>
<path d="M537.12 381.111L537.083 380.047L537.12 379.728L541.024 379.763L540.986 380.047L538.959 380.756L537.12 381.111Z" fill="#414042"/>
<path d="M537.158 380.827L537.12 379.728L538.096 378.273L539.297 379.337L541.024 379.763L539.034 380.472L537.158 380.827Z" fill="#58595B"/>
<path d="M518.391 393.56L515.651 395.085L516.814 392.708L519.404 389.942L523.045 387.069L526.836 384.622L531.302 382.707L536.031 381.146L541.023 379.763L546.203 378.415L549.656 377.493L551.72 376.89L553.672 376.287L555.173 375.791L555.511 375.755L555.549 375.933L540.723 383.594L525.86 392.247L518.391 393.56Z" fill="#939598"/>
<path opacity="0.1" d="M515.651 395.085L516.814 392.708L519.404 389.942L523.045 387.069L526.836 384.622L531.302 382.707L536.031 381.146L541.023 379.763L546.203 378.415L549.656 377.493L551.72 376.89L553.672 376.287L551.795 376.997L534.68 382.955L529.088 385.367L525.372 387.424L522.669 389.268L515.651 395.085Z" fill="black"/>
<path d="M545.189 385.509L546.128 386.076L546.916 386.36L547.591 386.573L544.551 386.857L542.562 386.715V386.502L543.012 386.289L545.189 385.509Z" fill="#414042"/>
<path d="M545.302 383.984L545.94 385.473L547.591 386.573L544.551 386.679L542.562 386.502L545.302 383.984Z" fill="#58595B"/>
<path d="M541.699 387.743L542.262 386.892V386.998L541.736 388.204L539.86 389.729L537.758 391.609L538.471 393.666L535.618 393.276L533.441 392.744V392.567L533.929 392.46L537.307 390.616L541.699 387.743Z" fill="#414042"/>
<path d="M541.924 387.105L542.262 386.892L542.037 388.275L540.235 389.978L538.809 391.645L538.471 393.666L535.618 393.099L533.441 392.567L537.307 390.439L541.924 387.105Z" fill="#58595B"/>
<path d="M517.19 395.617L522.107 395.262L528.75 393.701L533.442 391.964L537.308 389.835L541.924 386.537L545.828 382.92L549.281 379.692L553.297 377.458L555.549 375.933L548.981 378.486L528.225 389.552L525.41 391.077L521.281 392.744L518.391 393.56L517.19 395.617Z" fill="#6D6E71"/>
<path opacity="0.7" d="M525.409 393.737L528.862 392.992L532.879 391.503L536.82 389.375L540.986 386.254L544.889 382.778L540.385 386.076L535.994 389.126L532.203 391.148L528.675 392.46L525.409 393.737Z" fill="white"/>
<path d="M522.444 394.234H521.694L521.131 393.95V393.524L521.694 393.241H522.444L522.97 393.524V393.95L522.444 394.234Z" fill="#231F20"/>
<path d="M522.369 394.127H521.731L521.318 393.915V393.56L521.731 393.312H522.369L522.819 393.56V393.915L522.369 394.127Z" fill="#C79E64"/>
<path d="M522.257 393.985H521.881L521.581 393.843V393.631L521.881 393.489H522.257L522.519 393.631V393.843L522.257 393.985Z" fill="#0A0808"/>
<path d="M522.144 394.092H521.956L521.806 394.021V393.915L521.956 393.844H522.144L522.294 393.915V394.021L522.144 394.092Z" fill="white"/>
<path d="M528.562 389.162L528.9 388.204L527.849 387.318L529.238 387.14L532.428 387.211L534.643 386.857L535.468 386.608L535.506 386.75L531.903 388.382L528.562 389.162Z" fill="#414042"/>
<path d="M528.562 389.162L528.412 388.24L527.849 387.318L529.2 386.998L532.391 387.034L535.468 386.608L531.865 388.24L528.562 389.162Z" fill="#58595B"/>
<path d="M552.884 377.919L557.763 378.557L565.72 377.99H564.444L561.254 377.777L558.927 377.351L555.549 376.146L552.884 377.706V377.919Z" fill="#414042"/>
<path d="M557.763 378.344L552.884 377.706L553.297 377.458L555.549 375.933L558.927 377.174L565.72 377.99L557.763 378.344Z" fill="#58595B"/>
<path d="M325.206 315.037L327.458 313.831V301.843L325.206 303.049V315.037Z" fill="#A39C95"/>
<path d="M325.582 307.234L524.621 415.833V416.507L325.582 307.908V307.234Z" fill="#A39C95"/>
<path d="M325.995 306.524L525.071 415.123L524.621 415.833L325.582 307.234L325.995 306.524Z" fill="#B5AFA7"/>
<path d="M326.632 306.17L525.672 414.769L525.071 415.123L325.994 306.524L326.632 306.17Z" fill="#E6E1DD"/>
<path d="M526.122 415.691V415.017L525.672 414.769L525.071 415.123L524.621 415.833V416.506L525.071 416.755L525.672 416.435L526.122 415.691Z" fill="#362C29"/>
<path d="M523.12 409.52L525.372 408.314L328.209 300.743L325.957 301.949L523.12 409.52Z" fill="#E6E1DD"/>
<path d="M522.669 424.061L523.645 423.955L524.884 422.82L328.659 315.746L326.407 316.987L522.669 424.061Z" fill="#E6E1DD"/>
<path d="M324.118 314.93V302.942L325.957 301.949L523.12 409.52L524.921 412.534V424.522L523.12 425.515L325.957 317.945L324.118 314.93ZM523.833 423.423V412.428L522.669 410.477L326.407 303.403L325.206 304.042V315.036L326.407 316.987L522.669 424.061L523.833 423.423Z" fill="#D8D1C7"/>
<path d="M525.254 408.42L523.012 409.646L524.836 412.623L527.077 411.397L525.254 408.42Z" fill="#D8D1C7"/>
<path d="M326.407 316.987L328.659 315.746L327.458 313.831L325.206 315.036L326.407 316.987Z" fill="#B5AFA7"/>
<path d="M524.921 424.522L527.173 423.281V411.293L524.921 412.534V424.522Z" fill="#A39C95"/>
<path d="M420.579 299.928L419.153 304.042L415.7 307.837L417.051 311.49L429.775 316.491L431.651 311.348L433.04 309.433L434.691 303.829L425.083 299.183L420.579 299.928Z" fill="#F0C6B4"/>
<path d="M444.112 292.976L443.324 298.686L441.898 299.325L441.672 302.765L435.855 310.284L433.04 309.433L432.477 304.503L431.876 300.743L438.407 291.806L444.112 292.976Z" fill="#F0C6B4"/>
<path d="M405.115 443.922L408.756 445.731V446.547L406.279 450.377L403.351 452.222L400.198 457.719L397.008 459.279L394.418 457.613V456.761L396.745 454.066L405.115 443.922Z" fill="#362C29"/>
<path d="M417.163 453.569L434.579 451.796L439.683 451.086V451.938L437.806 455.803L430.75 458.251H422.831L417.726 459.882L413.447 459.244L411.871 455.059V454.243L417.163 453.569Z" fill="#362C29"/>
<path d="M405.115 443.071L407.968 443.603L408.756 445.731L406.279 449.562L403.351 451.406L400.198 456.903L397.008 458.428L394.418 456.761V452.753L395.431 445.235L405.115 443.071Z" fill="white"/>
<path d="M408.418 308.156L403.013 306.95L396.295 311.88L393.33 321.172L386.611 336.281L389.201 342.63L400.536 348.021L411.045 319.009L408.418 308.156Z" fill="#F4EFE9"/>
<path d="M436.268 322.414L434.691 321.74L431.651 321.172L431.876 319.151L429.774 316.491L421.179 310.213L415.699 307.837L413.41 308.085L411.045 309.114L409.094 308.085L406.354 308.475L400.686 312.873L398.697 321.74L407.968 362.172L427.522 363.874L431.876 353.837L436.943 330.713L436.268 322.414Z" fill="white"/>
<path d="M391.866 375.542L394.718 409.626L391.453 423.564L394.418 447.504L399.11 449.739L405.978 445.235L405.453 432.715L406.353 416.79L409.356 409.626L412.884 383.735L391.866 375.542Z" fill="#17435C"/>
<path d="M423.131 333.834L427.56 325.322L434.691 321.74L431.876 319.151L424.557 322.733L418.702 332.38L423.131 333.834Z" fill="#17435C"/>
<path d="M403.464 326.705L406.917 316.029L413.41 308.085H409.094L403.426 314.043L399.485 324.542L403.464 326.705Z" fill="#17435C"/>
<path d="M425.008 446.476L431.05 447.505H438.52L439.683 451.087L437.806 454.988L430.75 457.4H422.831L417.726 459.067L413.447 458.393L411.871 454.243L413.335 448.675L425.008 446.476Z" fill="white"/>
<path d="M397.984 318.193L409.431 327.804L426.096 333.763L423.844 350.822L423.506 359.724L426.922 361.143L429.136 358.625L430.225 392.495L428.348 417.393L425.083 437.396L426.622 446.476L421.104 451.086L411.496 449.597L410.895 425.834L413.523 414.627L408.23 387.743L394.568 380.898L391.866 375.542L393.705 359.724L398.209 348.375L397.984 318.193Z" fill="#29617D"/>
<path d="M443.287 374.195L442.311 367.527L447.64 363.874L449.855 369.371L447.64 374.514L443.287 374.195Z" fill="#E09D38"/>
<path d="M436.268 322.414L430.225 326.705L428.836 334.153L428.949 338.551L426.584 358.058L431.276 366.924L448.616 375.046L451.018 372.351L450.455 369.478L439.233 356.284L440.659 338.303L442.686 330.216L440.284 325.003L436.268 322.414Z" fill="#F4EFE9"/>
<path d="M447.64 363.874L450.343 368.662L456.311 367.775L460.589 368.662L462.391 371.748L461.19 377.919L459.951 378.238L458.3 375.933L453.233 376.748L449.93 376.465L448.504 375.507L443.287 374.195L448.166 369.229L447.64 363.874Z" fill="#FFEC7A"/>
<path d="M421.179 291.806L420.428 299.75L421.892 301.524L429.136 304.893L432.477 304.503L435.367 300.034L437.769 297.622H439.233L439.758 299.467L440.772 298.757L441.672 294.218L432.664 289.997L421.179 291.806Z" fill="#362C29"/>
<path d="M423.656 283.542L430.75 280.244L439.27 282.23L444.938 286.663L444.3 292.657L442.386 295.849L435.967 298.296L427.147 296.452L421.179 291.806L423.656 283.542Z" fill="white"/>
<path opacity="0.3" d="M278.305 445.682H261.978L250.418 451.995V460.898L269.748 471.431H286.075L297.635 465.154V456.216L278.305 445.682Z" fill="black"/>
<path d="M273.801 448.342L257.587 455.046L253.158 455.294V456.11L254.021 458.841L257.287 459.94L262.053 458.699L269.034 453.662L273.576 452.208L276.879 449.052V448.271L273.801 448.342Z" fill="#362C29"/>
<path d="M264.718 445.789L261.453 448.129L254.246 451.924L253.158 455.294L254.021 458.025L257.287 459.124L262.053 457.883L269.034 452.847L273.576 451.428L276.879 448.271V444.654L264.718 445.789Z" fill="white"/>
<path d="M239.045 355.313L251.544 342.297L253.008 325.769L247.04 322.01L243.849 324.032L242.611 329.671L230.225 348.823L233.753 354.001L239.045 355.313Z" fill="#F4EFE9"/>
<path d="M266.707 319.988L270.085 324.032V328.465L266.219 334.53L258.45 336.339L253.833 333.643L253.27 326.16L263.179 318.995L266.707 319.988Z" fill="#C7A495"/>
<path d="M266.707 319.989L268.434 323.358L268.584 327.614L264.793 331.941L258.9 334.317L255.072 327.153L248.316 328.04L247.04 335.736L248.316 344.319L273.388 358.328L279.807 370.67L292.268 371.486L294.257 360.314L286.938 331.941L282.096 329.033L278.868 327.614L278.756 326.16L274.327 323.713L269.935 322.01L266.707 319.989Z" fill="white"/>
<path d="M252.332 345.95L252.595 331.409L257.474 325.557L254.246 322.684L248.691 329.6V343.609L252.332 345.95Z" fill="#17435C"/>
<path d="M256.273 371.486L257.286 390L259.951 405.534L260.589 411.812L262.804 419.65L263.742 432.17L264.343 445.683L271.211 447.314L277.667 444.264L278.155 418.905L275.94 410.039L277.104 377.799L269.034 374.607L256.273 371.486Z" fill="#17435C"/>
<path d="M268.434 352.369L268.959 340.949L274.552 330.806L282.096 329.032L278.756 326.16L271.324 327.933L264.868 339.282L263.78 351.66L268.434 352.369Z" fill="#17435C"/>
<path d="M286.75 457.848L272.563 465.898L268.359 467.849V468.558L271.437 470.615H276.203L280.97 469.126L286.713 462.777L290.241 460.366L290.916 455.79V455.046L286.75 457.848Z" fill="#362C29"/>
<path d="M280.97 451.499L278.155 456.11L271.85 462.352L268.847 464.87L268.359 467.849L271.437 469.871H276.203L280.97 468.381L286.713 462.033L290.241 459.621L290.916 455.046L289.978 450.009L280.97 451.499Z" fill="white"/>
<path d="M245.914 340.914L257.924 347.83L271.924 351.838L278.155 360.385L281.533 368.152H289.077L294.257 360.314L294.745 380.034L290.541 415.89L292.943 427.772L291.066 450.612L284.648 454.514L279.281 451.357L278.305 427.382L275.152 416.812L271.624 385.815L264.981 382.977L256.273 371.486L256.461 358.895L245.914 340.914Z" fill="#29617D"/>
<path d="M242.836 319.031L243.474 323.642L246.514 326.692V331.586L247.603 332.118L248.917 332.083L251.544 335.133L255.072 335.346L262.729 328.678L262.992 325.521L265.356 323.606L265.581 322.01L266.219 317.967L257.624 314.562L246.852 316.442L242.836 319.031Z" fill="#F0C6B4"/>
<path d="M255.072 320.449L256.949 322.152L259.463 322.365L261.152 324.032L261.64 323.18L261.828 321.194L263.292 319.456L265.356 319.669L265.581 322.01L266.632 320.946L266.895 317.293L266.52 314.562L257.924 317.506L255.072 320.449Z" fill="#A16739"/>
<path d="M243.474 319.457L245.238 322.4L251.168 324.528L249.517 322.471L249.179 319.669L243.474 319.457Z" fill="#A16739"/>
<path d="M241.823 312.682L244.863 306.618L255.335 303L264.906 306.511L266.52 314.562L265.056 317.967L260.289 320.556L253.308 321.868L246.515 321.514L242.836 319.031L241.823 312.682Z" fill="white"/>
<path opacity="0.3" d="M118 464.196L254.771 538.818L329.801 497.854L193.217 423.161L118 464.196Z" fill="black"/>
<path d="M248.653 505.408L323.72 464.48V460.791L124.118 433.766L248.653 505.408Z" fill="#A39C95"/>
<path d="M124.118 433.765L248.653 501.72L323.72 460.791L199.147 392.837L124.118 433.765Z" fill="#E6E1DD"/>
<path d="M124.118 437.383L248.653 505.408V501.72L124.118 433.766V437.383Z" fill="#D8D1C7"/>
<path d="M129.748 464.444L124.118 467.53L120.665 399.328L123.33 394.965L129.748 395.533V464.444Z" fill="#A39C95"/>
<path d="M124.118 398.583L121.528 399.328L118 395.249L123.63 392.199L129.748 395.533L124.118 398.583Z" fill="#E6E1DD"/>
<path d="M124.118 467.53L118 464.196V395.249L124.118 398.583V467.53Z" fill="#D8D1C7"/>
<path d="M329.801 497.854L324.171 500.94L320.755 432.737L323.42 428.375L329.801 428.942V497.854Z" fill="#A39C95"/>
<path d="M324.171 431.992L321.581 432.737L318.09 428.694L323.683 425.608L329.801 428.942L324.171 431.992Z" fill="#E6E1DD"/>
<path d="M324.171 500.939L318.09 497.606V428.694L324.171 431.992V500.939Z" fill="#D8D1C7"/>
<path d="M260.401 535.732L254.771 538.818L251.356 470.616L254.021 466.253L260.401 466.821V535.732Z" fill="#A39C95"/>
<path d="M254.771 469.871L252.182 470.616L248.653 466.537L254.283 463.487L260.401 466.821L254.771 469.871Z" fill="#E6E1DD"/>
<path d="M254.771 538.818L248.653 535.484V466.537L254.771 469.871V538.818Z" fill="#D8D1C7"/>
<path d="M254.771 469.871L329.801 428.942V425.218L118 391.561L254.771 469.871Z" fill="#A39C95"/>
<path d="M118 391.56L254.771 466.147L329.801 425.218L193.029 350.632L118 391.56Z" fill="#E6E1DD"/>
<path d="M118 395.178L254.771 469.871V466.147L118 391.561V395.178Z" fill="#D8D1C7"/>
<path opacity="0.3" d="M166.193 411.067L144.311 399.079L173.662 383.083L195.656 395.071L166.193 411.067Z" fill="black"/>
<path d="M150.616 396.632L174.075 383.083L190.064 392.695L165.442 407.201L150.616 396.632Z" fill="#E6E1DD"/>
<path d="M166.005 405.463L145.887 394.504L173.775 379.289L193.855 390.248L166.005 405.463Z" fill="#F4EFE9"/>
<path d="M173.775 379.892L192.767 390.248L191.903 390.744L173.775 380.814V379.892Z" fill="#E0DEDC"/>
<path d="M173.775 380.814L147.839 394.965L146.976 394.504L173.775 379.892V380.814Z" fill="#D1D1D1"/>
<path d="M191.903 390.744L166.005 404.86L147.839 394.965L173.774 380.814L191.903 390.744Z" fill="#E6E1DD"/>
<path d="M166.005 409.719L147.088 399.398L145.887 394.504L166.005 405.463V409.719Z" fill="#D8D1C7"/>
<path d="M192.654 395.178L166.005 409.719V405.463L193.855 390.248L192.654 395.178Z" fill="#A39C95"/>
<path d="M166.193 404.789L144.686 393.05L173.549 377.302L195.093 389.042L166.193 404.789Z" fill="#F4EFE9"/>
<path d="M173.549 377.941L193.93 389.042L192.992 389.538L173.549 378.934V377.941Z" fill="#D8D1C7"/>
<path d="M173.549 378.934L146.75 393.546L145.85 393.05L173.549 377.941V378.934Z" fill="#A39C95"/>
<path d="M173.549 378.934L146.75 393.546L152.531 396.703L174.075 384.963L173.549 378.934Z" fill="#B5AFA7"/>
<path d="M174.075 384.963L187.737 392.411L192.992 389.539L173.549 378.934L174.075 384.963Z" fill="#D8D1C7"/>
<path d="M166.193 405.711L165.405 405.25L162.139 406.527L153.431 401.739L151.93 397.909L144.686 393.936V393.05L166.193 404.789V405.711Z" fill="#D8D1C7"/>
<path d="M195.093 389.929L187.437 394.114L185.71 398.157L171.823 406.031L167.018 405.25L166.193 405.711V404.789L195.093 389.042V389.929Z" fill="#A39C95"/>
<path d="M166.193 404.789L144.686 393.05H145.85L166.831 404.47L166.193 404.789Z" fill="#F4EFE9"/>
<path d="M166.193 404.789L195.093 389.042L194.455 388.723L166.005 404.257L166.193 404.789Z" fill="#F4EFE9"/>
<path opacity="0.3" d="M277.329 402.271L269.034 398.405L255.185 392.411L240.509 387.553L224.933 383.297L208.906 379.147L203.238 377.586L199.86 378.97L197.721 380.246L196.145 382.02L195.169 383.97L199.26 387.233L210.069 397.235L210.933 398.015L209.619 400.994L204.515 404.399L214.048 405.321L218.477 404.967L221.442 407.733L221.742 409.79L227.447 415.004L231.876 420.217L232.852 426.459L241.785 425.289L246.402 424.154L248.541 425.325L253.908 427.311L257.286 427.736L265.206 425.998L275.865 420.253L281.345 415.642L284.611 410.57L283.597 408.088L277.329 402.271Z" fill="black"/>
<path d="M279.281 404.825L269.034 398.086L255.184 392.092L240.509 387.233L224.933 382.977L218.74 384.715L225.871 394.894L263.592 416.813L267.946 409.116L279.281 404.825Z" fill="#939598"/>
<path opacity="0.1" d="M201.849 373.756L244.713 388.829L262.091 396.242L273.576 402.661L276.691 404.825L283.597 403.69L280.857 401.526L269.034 393.972L255.184 388.014L240.509 383.119L224.933 378.863L208.906 374.714L203.238 373.188L201.849 373.756Z" fill="black"/>
<path d="M211.946 396.703L209.093 398.441L206.616 399.399L204.514 399.966L214.048 400.924L220.128 400.427V399.824L218.739 399.15L211.946 396.703Z" fill="#17435C"/>
<path d="M211.608 391.95L209.619 396.597L204.514 399.966L214.048 400.321L220.128 399.824L211.608 391.95Z" fill="#29617D"/>
<path d="M222.906 403.654L221.104 400.959V401.314L222.793 405.073L228.573 409.826L235.067 415.713L232.852 422.026L241.785 420.856L248.541 419.189V418.621L247.002 418.338L236.493 412.628L222.906 403.654Z" fill="#17435C"/>
<path d="M222.193 401.704L221.104 400.959L221.742 405.357L227.447 410.606L231.876 415.82L232.852 422.026L241.785 420.253L248.541 418.621L236.493 412.025L222.193 401.704Z" fill="#29617D"/>
<path d="M283.597 403.69L280.857 401.526L269.034 393.972L255.185 388.014L240.509 383.119L224.933 378.863L208.906 374.714L203.239 373.188L199.86 374.572L197.721 375.813L196.145 377.622L197.496 379.892L208.643 389.432L220.129 400.427L235.104 411.031L248.279 418.373L254.246 418.905L261.978 411.776L283.597 403.69Z" fill="#FA5C52"/>
<path d="M247.903 416.813L253.908 408.691L260.552 404.045L267.383 400.64L274.852 399.505L278.305 399.895L275.002 399.718L268.509 401.314L261.678 404.825L255.485 409.329L247.903 416.813Z" fill="#FA847D"/>
<path d="M243.024 413.727L249.029 405.605L255.673 400.959L262.503 397.554L269.973 396.419L273.463 396.809L270.123 396.632L263.63 398.228L256.836 401.739L250.605 406.208L243.024 413.727Z" fill="#FA847D"/>
<path d="M238.107 410.712L244.112 402.555L250.756 397.944L257.587 394.504L265.056 393.405L268.509 393.759L265.169 393.582L258.713 395.178L251.919 398.689L245.689 403.193L238.107 410.712Z" fill="#FA847D"/>
<path d="M232.364 408.159L238.37 400.037L245.013 395.391L251.844 391.986L259.313 390.851L262.804 391.241L259.463 391.064L252.97 392.66L246.177 396.171L239.946 400.675L232.364 408.159Z" fill="#FA847D"/>
<path d="M226.021 405.534L232.027 397.412L238.708 392.766L245.539 389.361L253.008 388.226L256.461 388.616L253.12 388.439L246.665 390.035L239.834 393.546L233.603 398.051L226.021 405.534Z" fill="#FA847D"/>
<path d="M221.104 401.81L226.659 394.291L232.777 390.035L239.083 386.879L245.989 385.815L249.179 386.169L246.101 386.027L240.134 387.482L233.828 390.745L228.085 394.859L221.104 401.81Z" fill="#FA847D"/>
<path d="M216.45 398.299L221.592 391.383L227.26 387.411L233.078 384.502L239.458 383.545L242.423 383.864L239.571 383.722L234.053 385.07L228.236 388.084L222.944 391.879L216.45 398.299Z" fill="#FA847D"/>
<path d="M212.021 394.185L216.488 388.191L221.405 384.751L226.434 382.197L231.989 381.381L234.541 381.665L232.064 381.523L227.297 382.729L222.23 385.318L217.651 388.616L212.021 394.185Z" fill="#FA847D"/>
<path d="M207.818 390L211.533 384.999L215.625 382.126L219.866 380.034L224.445 379.324L226.584 379.573L224.557 379.466L220.541 380.459L216.338 382.623L212.509 385.389L207.818 390Z" fill="#FA847D"/>
<path d="M204.102 387.091L207.405 382.623L211.045 380.105L214.799 378.225L218.89 377.586L220.804 377.799L218.965 377.693L215.437 378.579L211.683 380.495L208.268 382.977L204.102 387.091Z" fill="#FA847D"/>
<path d="M200.536 383.97L203.276 380.246L206.316 378.118L209.469 376.558L212.884 376.026L214.461 376.203L212.959 376.132L209.994 376.877L206.841 378.473L203.989 380.53L200.536 383.97Z" fill="#FA847D"/>
<path d="M197.233 381.027L199.485 378.012L201.962 376.274L204.477 375.033L207.254 374.607L208.53 374.749L207.292 374.678L204.89 375.281L202.375 376.558L200.048 378.26L197.233 381.027Z" fill="#FA847D"/>
<path d="M196.145 377.622L199.147 379.502L210.069 388.723L222.193 399.859L236.493 410.216L248.541 416.777L254.246 418.905L253.908 422.877L248.541 420.891L236.493 414.33L222.193 403.974L210.069 392.802L199.26 382.8L195.169 379.573L196.145 377.622Z" fill="#377691"/>
<path opacity="0.5" d="M255.86 417.415L250.305 415.358L238.032 408.691L225.083 399.079L212.96 388.226L226.959 398.512L240.547 408.017L252.332 414.259L257.286 416.103L255.86 417.415Z" fill="white"/>
<path d="M283.897 406.704L280.294 404.435L276.766 406.066L272.45 411.138L273.463 413.727L279.881 411.741L283.897 406.704Z" fill="#8A1C14"/>
<path d="M253.909 422.877L253.008 420.785L254.246 418.905L260.89 411.776L264.718 409.223L271.812 405.357L279.844 403.796L283.597 403.69L283.898 404.435L278.53 406.776L273.689 411.493L279.244 410.5L283.898 406.705L283.823 407.414L281.345 411.209L275.865 415.855L265.206 421.601L257.287 423.303L253.909 422.877Z" fill="#C84030"/>
<path d="M269.109 415.891L267.946 415.288V413.514L269.109 411.599L270.761 410.712L271.924 411.315V413.124L270.761 415.004L269.109 415.891Z" fill="white"/>
<path d="M269.56 414.508L269.034 414.224V413.373L269.56 412.521L270.31 412.096L270.836 412.379V413.231L270.31 414.082L269.56 414.508Z" fill="#C84030"/>
<path opacity="0.3" d="M218.89 439.511L239.983 428.02H245.351L278.23 446.179V449.122L257.174 460.614H251.806L218.89 442.455V439.511Z" fill="black"/>
<path d="M245.463 426.814H239.721V430.041H245.463V426.814Z" fill="#B5AFA7"/>
<path d="M240.471 427.062L240.246 429.155L238.294 434.191L223.844 440.575H219.528V438.022L236.192 428.977L240.471 427.062Z" fill="#A39C95"/>
<path d="M244.825 427.062L245.088 429.155L245.838 430.609L276.691 447.952L277.629 447.136V444.583L245.688 427.062H244.825Z" fill="#A39C95"/>
<path d="M277.629 445.824V448.484L256.911 459.763H252.031L219.528 441.816V439.156L240.246 427.843H245.088L277.629 445.824Z" fill="#E6E1DD"/>
<path d="M252.032 460.082L219.528 442.135L218.89 440.823L219.34 440.575L252.032 458.592L253.57 459.833L252.032 460.082Z" fill="#D8D1C7"/>
<path d="M278.23 447.491H277.329L256.798 458.592L256.311 459.834L256.911 460.082L277.629 448.803L278.23 447.491Z" fill="#A39C95"/>
<path d="M257.174 458.982L256.911 460.082H252.032L251.807 458.982L253.983 458.592L257.174 458.982Z" fill="#B5AFA7"/>
<path d="M218.89 437.915L239.983 426.388H245.351L278.23 444.547V447.491L257.174 458.982H251.806L218.89 440.823V437.915ZM256.648 458.308L276.991 447.207V444.831L244.825 427.098H240.471L220.128 438.199V440.575L252.294 458.308H256.648Z" fill="#F4EFE9"/>
<path opacity="0.3" d="M274.139 453.13L273.088 450.612L269.409 443.271L261.377 434.652L252.857 427.843L245.989 428.694L243.474 429.013L233.79 433.163L226.246 440.469L225.158 441.568L224.144 442.526L223.018 445.079L223.356 447.101L232.402 450.47L253.045 455.294L267.758 456.712L270.048 455.932L268.246 452.315L268.021 451.96L273.088 454.691L274.139 453.13Z" fill="black"/>
<path d="M232.89 437.596L241.372 442.526L264.493 446.64L273.088 451.286L274.139 449.761L273.088 447.207L261.377 435.362L250.155 426.388L232.89 437.596Z" fill="#939598"/>
<path d="M267.045 447.562L272.9 450.612L273.688 449.655L272.15 447.456L264.493 442.81L264.193 444.441L267.045 447.562Z" fill="#7D4A5A"/>
<path d="M230.9 436.106L233.978 434.12L242.798 438.908L255.597 444.015L268.246 448.91L270.048 452.527L267.758 453.308L253.045 451.889L232.402 447.101L223.356 443.732L223.018 441.675L224.144 439.121L230.9 436.106Z" fill="#377691"/>
<path d="M233.79 429.758L241.372 438.412L264.493 442.561L273.088 447.207L269.409 439.866L261.377 431.283L252.857 424.438L243.474 425.644L233.79 429.758Z" fill="#F4EFE9"/>
<path opacity="0.1" d="M245.989 425.324L252.707 429.403L273.088 447.207L269.409 439.866L261.377 431.283L252.857 424.438L245.989 425.324Z" fill="black"/>
<path d="M233.791 429.758L242.798 434.794L255.597 439.901L264.493 442.561L268.246 448.91L253.045 447.775L232.402 442.987L224.144 439.121L233.791 429.758Z" fill="#428AA8"/>
<path opacity="0.7" d="M226.509 436.815L232.589 439.121L242.723 443.022L231.989 440.681L225.158 438.163L226.509 436.815Z" fill="white"/>
<path d="M251.957 444.618H254.359L256.01 443.696V442.419L254.359 441.497H251.957L250.305 442.419V443.696L251.957 444.618Z" fill="#231F20"/>
<path d="M252.182 444.299H254.134L255.485 443.59V442.526L254.134 441.781H252.182L250.831 442.526V443.59L252.182 444.299Z" fill="#C79E64"/>
<path d="M252.557 443.838H253.758L254.584 443.377V442.703L253.758 442.277H252.557L251.731 442.703V443.377L252.557 443.838Z" fill="#0A0808"/>
<path d="M252.895 444.193H253.533L253.946 443.944V443.59L253.533 443.377H252.895L252.444 443.59V443.944L252.895 444.193Z" fill="white"/>
<path opacity="0.3" d="M199.26 369.358L193.817 367.833L187.7 366.06L190.852 359.073V358.47L189.464 352.582L184.472 355.278L184.096 356.484L176.74 362.513L175.689 362.442L175.501 363.045L165.105 366.875L162.74 367.124L156.96 370.316L168.708 371.131L183.008 369.252L185.147 370.989L190.327 375.175L191.34 375.281L193.742 374.784L196.933 373.047L198.584 371.628L199.598 370.103L199.26 369.358Z" fill="black"/>
<path d="M190.327 372.479L185.147 368.329L175.501 360.349L192.466 370.28L190.327 372.479Z" fill="#377691"/>
<path d="M187.137 364.641L190.852 356.377V355.774L184.096 354.391L176.74 360.42L184.434 363.896L187.137 364.641Z" fill="#17435C"/>
<path d="M187.137 364.073L190.852 355.774L187.7 342.297L184.096 353.824L176.74 359.853L184.434 363.329L187.137 364.073Z" fill="#29617D"/>
<path d="M199.26 366.698L193.817 365.137L187.474 363.329L181.394 361.378L176.74 359.853L175.689 359.782L175.501 360.349L193.892 369.819L199.26 366.698Z" fill="#F4EFE9"/>
<path opacity="0.1" d="M199.26 366.698L193.818 365.137L187.474 363.329L181.394 361.378L187.137 363.612L197.759 367.301L199.26 366.698Z" fill="black"/>
<path d="M191.903 370.954L182.595 365.102L175.501 360.349L195.957 368.223L191.903 370.954Z" fill="#428AA8"/>
<path d="M183.871 366.449L168.708 368.471L143.973 366.733L147.877 366.698L157.823 366.059L165.104 364.783L175.501 360.952L183.871 365.847V366.449Z" fill="#17435C"/>
<path d="M168.708 367.868L183.871 365.847L183.834 365.776L182.595 365.102L175.501 360.349L165.104 364.18L143.973 366.733L168.708 367.868Z" fill="#29617D"/>
<path d="M190.327 372.479L190.064 371.84L190.439 371.273L192.429 369.109L193.592 368.365L195.732 367.336L198.134 366.733L199.26 366.698L199.598 367.443L198.584 368.968L196.933 370.351L193.742 372.089L191.34 372.621L190.327 372.479Z" fill="#FA5C52"/>
<path d="M230.225 348.823L226.021 357.619L222.38 369.819L228.273 372.302L236.267 361.768L239.045 355.313L230.225 348.823Z" fill="#F4EFE9"/>
<path d="M276.616 382.02L283.672 371.557L288.514 365.244L278.568 349.142L276.916 338.821L280.594 331.976L286.938 331.941L291.817 337.899L300.112 362.832L298.948 371.238L294.707 377.232L282.283 387.588L276.616 382.02Z" fill="#F4EFE9"/>
<path d="M272.412 385.602L264.68 387.694L259.463 393.83L260.777 398.299L267.946 399.895L273.951 395.994L278.155 392.766L279.131 390.744L284.348 387.482L281.983 382.02L276.166 380.956L272.412 385.602Z" fill="#FFEC7A"/>
<path d="M221.104 368.188V374.607L215.361 379.998L213.86 383.545L216.45 389.007L218.139 388.546L219.715 383.97L222.418 381.701L223.731 382.977L222.943 386.347L223.919 387.446L225.158 387.091L226.209 383.545L227.56 381.381L228.01 376.026L230.9 371.273L226.959 367.443L221.104 368.188Z" fill="#FFEC7A"/>
<path d="M423.305 426.884L418.2 432.984L415.873 437.453L402.924 450.15L399.922 448.483L396.469 446.993L390.313 453.235L397.707 461.074L407.391 460.364L428.747 445.078L429.836 428.054L423.305 426.884Z" fill="#F4EFE9"/>
<path d="M386.372 448.483L387.873 449.476L390.313 454.158L395.493 451.391L397.257 446.993L393.879 444.546L394.892 439.793L388.699 440.822L386.372 448.483Z" fill="#FFEC7A"/>
<path d="M424.318 484.943L424.581 504.449L427.208 521.934L426.908 527.893L428.86 536.086L429.648 548.995L428.86 563.288L436.704 564.53L443.16 561.799L444.549 538.178L442.597 527.574L446.763 495.689L435.165 486.042L424.318 484.943Z" fill="#17435C"/>
<path d="M445.787 426.494L446.688 429.615L448.377 431.956L449.466 434.58L446.463 439.049L434.828 442.844L431.788 436.282L436.817 427.274L445.787 426.494Z" fill="#C7A495"/>
<path d="M424.506 431.956L422.216 437.879L422.442 450.859L435.954 488.241L450.554 490.937L457.31 488.064L462.565 442.631L459.562 439.546L455.546 438.375L456.222 436.673L448.377 431.956L445.787 437.453L435.578 441.212L432.238 433.303L428.747 429.828L424.506 431.956Z" fill="white"/>
<path d="M426.045 448.483L428.747 435.502L434.565 430.147H439.557L436.254 427.274H431.337L424.844 433.658L422.442 446.142L426.045 448.483Z" fill="#17435C"/>
<path d="M422.442 423.869L422.779 427.629L424.506 429.047V431.956L429.122 439.971L432.575 440.822L438.468 437.311L441.884 433.303L442.71 430.963L444.323 429.544L444.999 428.054L445.787 424.614L443.423 419.791L422.442 423.869Z" fill="#F0C6B4"/>
<path d="M425.557 432.488V436.141L426.833 436.673L428.747 435.751L425.557 432.488Z" fill="#F0C6B4"/>
<path d="M435.578 425.891L438.994 426.458L439.632 428.054H440.87L441.659 425.891L443.61 424.401L444.999 425.146V428.054L446.238 425.607L446.088 420.393H441.471L435.578 425.891Z" fill="#A16739"/>
<path d="M444.849 454.832L449.165 444.546L454.57 439.546H459.562L456.222 436.673H451.305L445.525 441.886L440.232 454.087L444.849 454.832Z" fill="#17435C"/>
<path d="M420.49 444.085L432.463 451.001L447.589 454.725L447.401 474.586L449.766 482.566L456.034 484.056L460.538 479.233L463.278 491.114L459.562 526.261L462.527 540.625L462.227 564.956L455.809 568.857L450.442 565.7L448.34 537.682L444.661 526.261L440.758 500.903L433.176 495.689L424.318 484.943L424.168 468.132L420.49 444.085Z" fill="#29617D"/>
<path d="M422.592 415.641L427.771 410.605L435.053 408.583L444.661 412.094L446.238 420.145L444.474 423.231L439.181 425.82L432.763 426.458L426.232 425.891L422.442 423.869L422.592 415.641Z" fill="white"/>
<path d="M384.383 450.398L383.219 451.391L381.831 450.647V449.015L391.889 432.559L393.316 433.303L384.383 450.398Z" fill="#685750"/>
<path d="M385.771 451.178L384.27 451.959L383.219 451.391V449.76L393.316 433.303L395.83 434.686L385.771 451.178Z" fill="#403531"/>
<path d="M399.659 400.248L399.246 400L382.506 427.38L382.919 427.629L401.686 419.649L410.393 408.654V406.845L399.659 400.248ZM409.23 407.696V408.406L408.742 409.186L408.066 409.576L407.578 409.292V408.583L408.066 407.803L408.742 407.413L409.23 407.696Z" fill="#F4EFE9"/>
<path d="M410.694 406.278L399.659 400.248L382.919 427.629L395.305 434.403L410.881 408.902L410.694 406.278ZM409.643 407.909V408.654L409.192 409.434L408.517 409.789L408.029 409.541V408.796L408.517 408.016L409.192 407.661L409.643 407.909Z" fill="#D1D1D1"/>
<path d="M383.219 444.723L386.297 445.468L390.989 440.822L391.702 436.353L388.136 433.303L384.458 435.928L382.919 442.17L383.219 444.723Z" fill="#FFEC7A"/>
<path d="M390.313 442.276L391.89 438.659L394.179 437.737L394.892 439.794L391.89 443.411L390.313 442.276Z" fill="#FFEC7A"/>
<path d="M402.924 450.15L406.678 455.895V453.413L402.924 450.15Z" fill="#D1D1D1"/>
<path opacity="0.3" d="M291 577.12L427.771 651.707L502.801 610.778L366.217 536.085L291 577.12Z" fill="black"/>
<path d="M421.691 618.333L496.72 577.404V573.68L297.118 546.655L421.691 618.333Z" fill="#A39C95"/>
<path d="M297.118 546.655L421.691 614.609L496.72 573.68L372.147 505.726L297.118 546.655Z" fill="#E6E1DD"/>
<path d="M297.118 550.272L421.691 618.333V614.609L297.118 546.655V550.272Z" fill="#D8D1C7"/>
<path d="M302.748 577.369L297.118 580.419L293.665 512.217L296.33 507.89L302.748 508.422V577.369Z" fill="#A39C95"/>
<path d="M297.118 511.507L294.528 512.217L291 508.173L296.63 505.123L302.748 508.422L297.118 511.507Z" fill="#E6E1DD"/>
<path d="M297.118 580.419L291 577.121V508.173L297.118 511.507V580.419Z" fill="#D8D1C7"/>
<path d="M502.801 610.778L497.171 613.828L493.755 545.662L496.42 541.299L502.801 541.867V610.778Z" fill="#A39C95"/>
<path d="M497.171 544.917L494.581 545.662L491.09 541.583L496.72 538.533L502.801 541.867L497.171 544.917Z" fill="#E6E1DD"/>
<path d="M497.171 613.829L491.09 610.53V541.583L497.171 544.917V613.829Z" fill="#D8D1C7"/>
<path d="M427.771 582.795L502.801 541.867V538.143L291 504.449L427.771 582.795Z" fill="#A39C95"/>
<path d="M291 504.449L427.771 579.071L502.801 538.143L366.067 463.521L291 504.449Z" fill="#E6E1DD"/>
<path d="M291 508.067L427.771 582.795V579.071L291 504.449V508.067Z" fill="#D8D1C7"/>
<path opacity="0.3" d="M315.584 492.533L336.678 490.014L347.075 486.184L347.263 485.617L348.314 485.652L355.67 479.623L359.273 468.132L362.426 481.609V482.212L359.311 489.199L365.391 490.972L376.238 493.88L392.227 498.03L397.707 496.718L401.386 493.455L404.388 497.959L404.576 498.881L404.463 501.364L407.804 502.286L422.517 507.18L436.367 513.139L443.16 517.501L443.648 516.544L443.46 515.515L448.715 513.954L454.12 512.536L452.619 515.515L454.12 515.125L451.68 519.877L449.166 521.473L459.412 529.666L467.444 538.285L471.085 545.626L472.174 548.144L471.085 549.705L466.056 546.974L466.243 547.329L468.082 550.911L465.755 551.726L451.042 550.308L430.436 545.484L415.874 540.058L413.734 538.888L409.117 540.022L400.147 541.228L399.171 534.986L394.78 529.773L389.075 524.524L388.774 522.466L385.772 519.736L381.343 520.09L371.809 519.133L376.951 515.763L378.228 512.784L377.364 511.968L366.555 502.002L356.721 494.129L354.582 492.391L340.281 494.271L315.584 492.533Z" fill="black"/>
<path d="M446.763 518.565L451.68 515.444L454.12 510.691L452.619 511.933L450.066 512.536L443.16 515.657V516.26L443.573 517.749L446.763 518.565Z" fill="#17435C"/>
<path d="M446.763 517.962L451.68 514.876L454.12 510.691L448.715 512.11L443.46 513.671L443.648 514.699L443.16 515.657L443.573 517.182L446.763 517.962Z" fill="#29617D"/>
<path d="M446.763 515.976L451.68 512.855L454.12 508.102L451.718 509.84L450.066 509.982L443.16 513.103V513.671L443.573 515.16L446.763 515.976Z" fill="#17435C"/>
<path d="M446.763 515.373L451.68 512.287L454.12 508.102L448.715 509.556L443.46 511.117L443.648 512.11L443.16 513.103L443.573 514.593L446.763 515.373Z" fill="#29617D"/>
<path d="M462.528 540.625L471.085 545.307L472.174 543.746L471.085 541.228L459.412 529.347L448.19 520.374L436.367 512.855L422.517 506.861L407.804 501.967L392.228 497.746L376.238 493.561L365.391 490.653L359.799 488.205L354.169 485.155L348.989 482.034L347.638 481.467L347.075 481.751L393.203 509.627L439.407 536.511L462.528 540.625Z" fill="#939598"/>
<path d="M465.042 541.547L470.935 544.633L471.723 543.64L470.184 541.441L462.527 536.795L462.227 538.426L465.042 541.547Z" fill="#7D4A5A"/>
<path d="M465.755 547.293L451.042 545.874L430.436 541.086L415.874 535.66L403.788 529.063L389.488 518.742L377.364 507.57L366.555 497.569L356.721 489.731L347.075 481.751L367.568 493.738L432.013 528.106L440.796 532.894L453.632 538.001L466.243 542.931L468.082 546.513L465.755 547.293Z" fill="#377691"/>
<path d="M358.748 486.042L362.426 477.814V477.175L355.67 475.828L348.313 481.822L356.008 485.297L358.748 486.042Z" fill="#17435C"/>
<path d="M358.748 485.475L362.426 477.176L359.273 463.698L355.67 475.225L348.313 481.254L356.008 484.73L358.748 485.475Z" fill="#29617D"/>
<path d="M404.426 497.817L404.576 494.448L404.388 493.561L392.227 493.632L392.415 494.554L398.683 496.718L404.426 497.817Z" fill="#17435C"/>
<path d="M404.238 496.895L404.388 493.561L401.385 489.021L397.707 492.32L392.227 493.632L398.495 495.831L404.238 496.895Z" fill="#29617D"/>
<path d="M462.528 536.547L471.085 541.228L467.444 533.851L459.412 525.268L448.19 516.26L436.367 508.741L422.517 502.747L407.804 497.888L392.228 493.632L376.238 489.447L365.391 486.539L359.086 484.73L352.968 482.779L348.314 481.254L347.263 481.183L347.075 481.751L393.203 505.513L439.407 532.397L462.528 536.547Z" fill="#F4EFE9"/>
<path opacity="0.1" d="M471.085 541.228L467.444 533.851L459.412 525.268L448.19 516.26L436.367 508.741L422.517 502.747L407.804 497.888L392.227 493.632L376.238 489.447L365.391 486.539L359.086 484.73L352.968 482.779L358.748 485.014L412.008 503.598L429.423 511.011L440.908 517.43L449.241 523.176L471.085 541.228Z" fill="black"/>
<path d="M379.278 511.436L376.426 513.21L373.949 514.167L371.809 514.735L381.343 515.657L387.461 515.196V514.593L386.072 513.883L379.278 511.436Z" fill="#17435C"/>
<path d="M378.941 506.719L376.951 511.365L371.809 514.735L381.343 515.089L387.461 514.593L378.941 506.719Z" fill="#29617D"/>
<path d="M390.201 518.423L388.399 515.728V516.047L390.088 519.806L395.868 524.559L402.399 530.482L400.147 536.795L409.118 535.625L415.874 533.958V533.355L414.297 533.106L403.788 527.396L390.201 518.423Z" fill="#17435C"/>
<path d="M389.488 516.473L388.399 515.728L389.075 520.126L394.78 525.339L399.171 530.553L400.147 536.795L409.118 535.022L415.874 533.355L403.788 526.793L389.488 516.473Z" fill="#29617D"/>
<path d="M466.243 542.931L451.042 541.76L430.436 536.972L415.874 531.546L403.788 524.949L389.488 514.628L377.364 503.456L366.48 494.235L354.169 486.503L347.075 481.751L367.568 489.624L432.013 523.992L440.796 528.779L453.632 533.887L462.528 536.547L466.243 542.931Z" fill="#428AA8"/>
<path opacity="0.7" d="M440.758 537.008L430.024 534.667L417.6 530.127L405.364 523.459L392.378 513.848L380.254 502.995L394.292 513.28L407.841 522.75L419.627 529.028L430.624 533.106L440.758 537.008Z" fill="white"/>
<path d="M449.991 538.604H452.356L454.045 537.682V536.405L452.356 535.483H449.991L448.34 536.405V537.682L449.991 538.604Z" fill="#231F20"/>
<path d="M450.217 538.32H452.168L453.52 537.575V536.511L452.168 535.766H450.217L448.865 536.511V537.575L450.217 538.32Z" fill="#C79E64"/>
<path d="M450.592 537.823H451.793L452.619 537.362V536.724L451.793 536.263H450.592L449.766 536.724V537.362L450.592 537.823Z" fill="#0A0808"/>
<path d="M450.93 538.178H451.53L451.981 537.93V537.611L451.53 537.362H450.93L450.442 537.611V537.93L450.93 538.178Z" fill="white"/>
<path d="M430.962 522.856L429.949 519.842L433.176 517.111L428.86 516.543L418.951 516.685L412.083 515.692L409.568 514.947L409.455 515.373L420.64 520.374L430.962 522.856Z" fill="#17435C"/>
<path d="M430.962 522.856L431.525 519.984L433.176 517.111L428.973 516.082L419.064 516.26L409.568 514.947L420.753 519.913L430.962 522.856Z" fill="#29617D"/>
<path d="M355.445 487.851L340.281 489.837L315.584 488.135L319.45 488.099L329.397 487.461L336.678 486.184L347.075 482.354L355.445 487.248V487.851Z" fill="#17435C"/>
<path d="M340.281 489.27L355.445 487.248L355.407 487.177L354.169 486.503L347.075 481.751L336.678 485.581L315.584 488.135L340.281 489.27Z" fill="#29617D"/>
<path opacity="0.3" d="M331.836 524.594L309.842 512.607L339.193 496.576L361.187 508.599L331.836 524.594Z" fill="black"/>
<path d="M316.222 510.159L339.681 496.611L355.67 506.223L331.086 520.693L316.222 510.159Z" fill="#E6E1DD"/>
<path d="M331.649 518.991L311.531 508.031L339.381 492.816L359.498 503.775L331.649 518.991Z" fill="#F4EFE9"/>
<path d="M339.38 493.419L358.41 503.775L357.547 504.236L339.38 494.341V493.419Z" fill="#E0DEDC"/>
<path d="M339.381 494.341L313.482 508.492L312.619 508.031L339.381 493.419V494.341Z" fill="#D1D1D1"/>
<path d="M357.547 504.237L331.649 518.388L313.482 508.492L339.381 494.341L357.547 504.237Z" fill="#E6E1DD"/>
<path d="M331.649 523.246L312.732 512.926L311.531 508.031L331.649 518.99V523.246Z" fill="#D8D1C7"/>
<path d="M358.297 508.705L331.649 523.247V518.991L359.498 503.775L358.297 508.705Z" fill="#A39C95"/>
<path d="M331.836 518.317L310.33 506.577L339.193 490.83L360.699 502.57L331.836 518.317Z" fill="#F4EFE9"/>
<path d="M339.155 491.433L359.536 502.569L358.635 503.066L339.155 492.461V491.433Z" fill="#D8D1C7"/>
<path d="M339.155 492.461L312.394 507.074L311.456 506.577L339.155 491.433V492.461Z" fill="#A39C95"/>
<path d="M339.155 492.461L312.394 507.074L318.174 510.23L339.681 498.455L339.155 492.461Z" fill="#B5AFA7"/>
<path d="M339.681 498.455L353.38 505.939L358.635 503.066L339.155 492.461L339.681 498.455Z" fill="#D8D1C7"/>
<path d="M331.836 519.204L331.048 518.778L327.783 520.055L319.075 515.267L317.574 511.436L310.33 507.464V506.577L331.836 518.317V519.204Z" fill="#D8D1C7"/>
<path d="M360.699 503.456L353.042 507.641L351.316 511.685L337.466 519.558L332.662 518.778L331.836 519.203V518.317L360.699 502.57V503.456Z" fill="#A39C95"/>
<path d="M331.836 518.317L310.33 506.577H311.456L332.437 517.998L331.836 518.317Z" fill="#F4EFE9"/>
<path d="M331.836 518.317L360.699 502.57L360.099 502.215L331.649 517.785L331.836 518.317Z" fill="#F4EFE9"/>
<path opacity="0.3" d="M336.115 524.772L357.171 513.281H362.576L395.418 531.404V534.348L374.361 545.839H368.994L336.115 527.68V524.772Z" fill="black"/>
<path d="M362.688 512.039H356.946V515.267H362.688V512.039Z" fill="#B5AFA7"/>
<path d="M357.697 512.287L357.434 514.38L355.52 519.416L341.032 525.8H336.716V523.247L353.418 514.203L357.697 512.287Z" fill="#A39C95"/>
<path d="M362.05 512.287L362.313 514.38L363.026 515.834L393.916 533.177L394.817 532.362V529.843L362.876 512.287H362.05Z" fill="#A39C95"/>
<path d="M394.817 531.049V533.709L374.099 544.988H369.257L336.716 527.041V524.381L357.434 513.103H362.313L394.817 531.049Z" fill="#E6E1DD"/>
<path d="M369.257 545.307L336.715 527.361L336.115 526.049L336.528 525.8L369.257 543.817L370.796 545.059L369.257 545.307Z" fill="#D8D1C7"/>
<path d="M395.418 532.716H394.517L374.023 543.817L373.536 545.059L374.099 545.307L394.817 534.029L395.418 532.716Z" fill="#A39C95"/>
<path d="M374.361 544.207L374.099 545.307H369.257L368.994 544.207L371.209 543.817L374.361 544.207Z" fill="#B5AFA7"/>
<path d="M336.115 523.14L357.171 511.614H362.576L395.418 529.772V532.716L374.361 544.207H368.994L336.115 526.048V523.14ZM373.874 543.534L394.217 532.432V530.056L362.05 512.323H357.697L337.466 523.388V525.765L369.632 543.498L373.874 543.534Z" fill="#F4EFE9"/>
<path d="M440.232 499.271L447.289 487.78L452.093 481.467L451.567 455.824L455.509 446.426L462.565 442.631L465.417 445.22L468.082 451.959L461.514 486.787L457.836 492.958L445.825 504.449L440.232 499.271Z" fill="#F4EFE9"/>
<path d="M436.441 502.995L428.71 505.052L423.493 511.188L424.806 515.657L432.013 517.253L438.018 513.387L442.184 510.124L443.16 508.102L448.377 504.875L445.525 498.313H438.281L436.441 502.995Z" fill="#FFEC7A"/>
</g>
<defs>
<linearGradient id="paint0_linear_8_4919" x1="53.5" y1="40" x2="311.151" y2="513.031" gradientUnits="userSpaceOnUse">
<stop stop-color="#F0F9FF"/>
<stop offset="1" stop-color="#E0F2FE"/>
</linearGradient>
<clipPath id="clip0_8_4919">
<rect width="560" height="560" fill="white"/>
</clipPath>
</defs>
</svg>
